<?xml version="1.0" standalone="no"?><!DOCTYPE svg PUBLIC "-//W3C//DTD SVG 1.1//EN" "http://www.w3.org/Graphics/SVG/1.1/DTD/svg11.dtd"><svg t="1709121586258" class="icon" viewBox="0 0 1024 1024" version="1.1" xmlns="http://www.w3.org/2000/svg" p-id="1485" xmlns:xlink="http://www.w3.org/1999/xlink" width="200" height="200"><path d="M800 160H224a96 96 0 0 0-96 96v480a96 96 0 0 0 96 96h576a96 96 0 0 0 96-96V256a96 96 0 0 0-96-96zM224 224h576a32 32 0 0 1 32 32v480a32 32 0 0 1-32 32H224a32 32 0 0 1-32-32V256a32 32 0 0 1 32-32z" fill="#21609c" p-id="1486"></path><path d="M864 320v64H160v-64zM352 96a32 32 0 0 1 31.776 28.256L384 128v128a32 32 0 0 1-63.776 3.744L320 256V128a32 32 0 0 1 32-32zM672 96a32 32 0 0 1 31.776 28.256L704 128v128a32 32 0 0 1-63.776 3.744L640 256V128a32 32 0 0 1 32-32zM617.376 489.376a32 32 0 0 1 47.904 42.24l-2.656 3.008L525.248 672a64 64 0 0 1-86.432 3.744L434.752 672l-73.376-73.376a32 32 0 0 1 42.24-47.904l3.008 2.656L480 626.752l137.376-137.376z" fill="#21609c" p-id="1487"></path></svg>
