<?xml version="1.0" standalone="no"?><!DOCTYPE svg PUBLIC "-//W3C//DTD SVG 1.1//EN" "http://www.w3.org/Graphics/SVG/1.1/DTD/svg11.dtd"><svg t="1704878601334" class="icon" viewBox="0 0 1024 1024" version="1.1" xmlns="http://www.w3.org/2000/svg" p-id="44654" xmlns:xlink="http://www.w3.org/1999/xlink" width="200" height="200"><path d="M785.067 238.933h149.452L785.067 89.481v149.452zM989.44 221.44a118.016 118.016 0 0 1 34.56 83.439v650.854c0 37.547-30.72 68.267-68.267 68.267H273.067c-37.547 0-68.267-30.72-68.267-68.267v-51.2H256v51.2c0 9.25 7.817 17.067 17.067 17.067h682.666c9.25 0 17.067-7.817 17.067-17.067V304.88c0-5.035-0.7-9.95-1.775-14.746H733.867V52.975A67.294 67.294 0 0 0 719.12 51.2H273.067c-9.25 0-17.067 7.817-17.067 17.067v153.6h-51.2v-153.6C204.8 30.72 235.52 0 273.067 0H719.12c31.3 0 61.32 12.442 83.439 34.56l186.88 186.88zM665.6 469.333v-51.2h238.933v51.2H665.6z m0 153.6v-51.2h238.933v51.2H665.6z m0 153.6v-51.2h238.933v51.2H665.6zM0 853.333V273.067h580.267v580.266H0z m397.397-157.781l89.088-264.704h-64.512l-52.736 195.584-52.224-195.584h-53.76L211.03 626.432l-52.736-195.584H93.781l89.088 264.704h54.272l53.248-193.536 52.736 193.536h54.272z" fill="#22609c" p-id="44655"></path></svg>
