<?xml version="1.0" standalone="no"?><!DOCTYPE svg PUBLIC "-//W3C//DTD SVG 1.1//EN" "http://www.w3.org/Graphics/SVG/1.1/DTD/svg11.dtd"><svg t="1709280428673" class="icon" viewBox="0 0 1024 1024" version="1.1" xmlns="http://www.w3.org/2000/svg" p-id="13804" xmlns:xlink="http://www.w3.org/1999/xlink" width="64" height="64"><path d="M34.391197 289.29119v542.425832h525.01377V289.29119z" fill="#2E9B44" p-id="13805"></path><path d="M199.430637 0h53.128781v213.39478h-53.128781z" fill="#2E9B44" p-id="13806"></path><path d="M703.164436 0h53.12878v286.910938h-53.12878z" fill="#2E9B44" p-id="13807"></path><path d="M718.713691 37.657141L756.28028 0.090553 989.467374 233.264711l-37.566588 37.579525z" fill="#2E9B44" p-id="13808"></path><path d="M652.454716 410.58056h204.9216v53.128781H652.454716z" fill="#2E9B44" p-id="13809"></path><path d="M713.099401 233.846838H989.596736v53.12878H713.099401z" fill="#2E9B44" p-id="13810"></path><path d="M652.428843 553.421562h204.9216v53.12878H652.428843z" fill="#2E9B44" p-id="13811"></path><path d="M652.402971 696.249627h204.9216v53.128781H652.402971z" fill="#2E9B44" p-id="13812"></path><path d="M199.430637 907.755729h53.128781v116.076101h-53.128781z" fill="#2E9B44" p-id="13813"></path><path d="M936.35153 233.342328h53.12878v790.644736h-53.12878z" fill="#2E9B44" p-id="13814"></path><path d="M199.469446 0.090553h556.862578v53.12878H199.469446z" fill="#2E9B44" p-id="13815"></path><path d="M199.417701 970.76773h736.920893v53.128781H199.417701z" fill="#2E9B44" p-id="13816"></path><path d="M271.601435 543.47366l32.14634 61.614897-86.465246 126.192173H143.171308z m2.082721 33.038935L148.526875 391.098714h74.408752l97.629147 152.387882 128.727659 187.80707h-74.111221z m21.577503-64.887743l74.408752-120.539074h74.408752l-120.539074 183.486394z" fill="#FFFFFF" p-id="13817"></path></svg>