<?xml version="1.0" standalone="no"?><!DOCTYPE svg PUBLIC "-//W3C//DTD SVG 1.1//EN" "http://www.w3.org/Graphics/SVG/1.1/DTD/svg11.dtd"><svg t="1704884269730" class="icon" viewBox="0 0 1024 1024" version="1.1" xmlns="http://www.w3.org/2000/svg" p-id="13917" xmlns:xlink="http://www.w3.org/1999/xlink" width="200" height="200"><path d="M629.037 533.504H862.45v66.74H629.037v-66.74z m0-133.36H862.45v66.68H629.037v-66.68z m0 266.781H862.45v66.68H629.037v-66.68zM30.117 281.42v533.504h533.625V281.3H30.118z m339.366 418.816L296.96 591.691l-32.708 48.911h32.708v59.633H132.88L252.023 524.77 146.492 366.773h88.064l62.464 91.859 62.344-91.8h88.064L341.775 524.65l119.206 175.526h-91.437z m574.103-522.842L816.61 50.236C788.902 22.648 734.389 0 695.236 0H268.529a71.319 71.319 0 0 0-71.078 71.078v143.54h56.862V71.078a14.456 14.456 0 0 1 14.336-14.216h426.707c4.217 0 9.036 0.602 14.156 1.566v226.003h226.123c0.964 5.12 1.566 33.19 1.566 37.527V929.25a14.456 14.456 0 0 1-14.336 14.155H268.529a14.456 14.456 0 0 1-14.276-14.155v-47.706h-56.862v47.706a71.258 71.258 0 0 0 71.078 71.078h654.336a71.258 71.258 0 0 0 71.077-71.078V322.078c0.06-39.153-22.588-117.158-50.296-144.745z m-177.212 50.236V82.281c3.554 2.41 6.866 5.24 9.878 8.313L903.228 217.57a70.661 70.661 0 0 1 8.373 10.06H766.374z" fill="#22609c" p-id="13918"></path></svg>
