<?xml version="1.0" standalone="no"?><!DOCTYPE svg PUBLIC "-//W3C//DTD SVG 1.1//EN" "http://www.w3.org/Graphics/SVG/1.1/DTD/svg11.dtd"><svg t="1709280587983" class="icon" viewBox="0 0 1024 1024" version="1.1" xmlns="http://www.w3.org/2000/svg" p-id="22176" xmlns:xlink="http://www.w3.org/1999/xlink" width="64" height="64"><path d="M171.52 468.48h570.88c15.36 0 25.6 10.24 25.6 25.6v332.8c0 15.36-10.24 25.6-25.6 25.6h-570.88v84.48h683.52v-624.64l-2.56-2.56h-125.44c-33.28 0-58.88-28.16-58.88-61.44v-161.28l-2.56-2.56h-494.08v384z m-43.52 384h-17.92c-15.36 0-25.6-10.24-25.6-25.6v-332.8c0-15.36 10.24-25.6 25.6-25.6h17.92v-384c0-23.04 17.92-43.52 43.52-43.52h494.08c12.8 0 25.6 5.12 33.28 15.36l189.44 227.84c5.12 7.68 10.24 17.92 10.24 28.16v624.64c0 23.04-17.92 43.52-43.52 43.52h-683.52c-23.04 0-43.52-17.92-43.52-43.52v-84.48z m61.44-266.24v181.76h40.96v-71.68h28.16c10.24 0 17.92 0 25.6-2.56 7.68-2.56 15.36-5.12 20.48-10.24 5.12-5.12 10.24-10.24 12.8-17.92 2.56-7.68 5.12-15.36 5.12-25.6s-2.56-20.48-5.12-25.6-7.68-12.8-15.36-17.92c-5.12-5.12-12.8-7.68-23.04-7.68-7.68-2.56-17.92-2.56-25.6-2.56h-64z m38.4 76.8v-43.52h33.28c5.12 0 7.68 2.56 10.24 2.56s5.12 2.56 7.68 7.68 2.56 7.68 2.56 10.24c0 5.12 0 7.68-2.56 10.24s-2.56 5.12-5.12 7.68-5.12 2.56-10.24 2.56h-35.84z m122.88-76.8v181.76h64c12.8 0 25.6-2.56 38.4-5.12 12.8-5.12 23.04-10.24 33.28-17.92 10.24-7.68 17.92-17.92 23.04-28.16s7.68-23.04 7.68-38.4-2.56-30.72-7.68-40.96c-5.12-12.8-12.8-20.48-23.04-28.16-10.24-7.68-20.48-12.8-33.28-15.36-12.8-2.56-25.6-5.12-40.96-5.12h-61.44z m38.4 145.92v-107.52h23.04c7.68 0 15.36 0 23.04 2.56 7.68 2.56 15.36 5.12 20.48 10.24 5.12 5.12 10.24 10.24 12.8 15.36s5.12 15.36 5.12 23.04c0 10.24-2.56 17.92-5.12 25.6s-7.68 12.8-12.8 17.92c-5.12 5.12-12.8 7.68-20.48 10.24-7.68 2.56-15.36 2.56-25.6 2.56h-20.48z m156.16-145.92v181.76h40.96v-71.68h76.8v-35.84h-76.8v-35.84h81.92V588.8h-122.88z" fill="#FF4840" p-id="22177"></path><path d="M576 340.48h-299.52c-12.8 0-20.48-10.24-20.48-20.48 0-12.8 10.24-20.48 20.48-20.48h299.52c12.8 0 20.48 10.24 20.48 20.48 0 12.8-7.68 20.48-20.48 20.48zM448 256h-171.52c-12.8 0-20.48-10.24-20.48-20.48 0-12.8 10.24-20.48 20.48-20.48h171.52c12.8 0 20.48 10.24 20.48 20.48s-7.68 20.48-20.48 20.48z" fill="#FF4840" p-id="22178"></path></svg>