<?xml version="1.0" standalone="no"?><!DOCTYPE svg PUBLIC "-//W3C//DTD SVG 1.1//EN" "http://www.w3.org/Graphics/SVG/1.1/DTD/svg11.dtd"><svg t="1716261886406" class="icon" viewBox="0 0 1024 1024" version="1.1" xmlns="http://www.w3.org/2000/svg" p-id="2648" xmlns:xlink="http://www.w3.org/1999/xlink" width="200" height="200"><path d="M181.08416 716.82048C249.69216 827.45344 372.24448 901.12 512 901.12c139.75552 0 262.28736-73.66656 330.91584-184.29952h47.34976C817.47968 850.98496 675.36896 942.08 512 942.08c-163.36896 0-305.47968-91.09504-378.2656-225.28l47.34976 0.02048zM512 798.72l12.65664 26.97216 28.30336 4.3008-20.48 21.01248 4.83328 29.63456L512 866.65216 486.68672 880.64 491.52 851.00544l-20.48-20.992 28.30336-4.32128L512 798.72z m-141.7216-35.79904l0.36864 29.32736 24.3712 17.53088-27.79136 8.00768-7.9872 27.79136-17.55136-24.3712-29.32736-0.36864 16.95744-23.06048-10.11712-28.01664 28.01664 10.11712 23.06048-16.95744z m283.4432 0l23.06048 16.95744 28.01664-10.11712-10.11712 28.01664 16.95744 23.06048-29.32736 0.36864-17.53088 24.3712-8.00768-27.79136-27.79136-7.9872 24.3712-17.55136 0.36864-29.32736zM605.96224 716.8h76.14464A265.15456 265.15456 0 0 1 512 778.24a265.15456 265.15456 0 0 1-170.0864-61.41952h76.12416c28.61056 13.12768 60.416 20.45952 93.96224 20.45952a224.4608 224.4608 0 0 0 93.96224-20.48zM942.08 327.68a40.96 40.96 0 0 1 40.96 40.96v286.72a40.96 40.96 0 0 1-40.96 40.96H81.92a40.96 40.96 0 0 1-40.96-40.96V368.64a40.96 40.96 0 0 1 40.96-40.96h860.16z m0 40.96H81.92v286.72h860.16V368.64z m-327.3728 146.1248v21.87264h-67.9936v50.25792c0 7.20896 3.01056 11.0592 9.48224 11.0592h31.37536c2.99008 0 4.97664-1.67936 6.47168-4.8128 1.49504-3.35872 2.47808-13.45536 3.23584-30.3104l22.40512 6.7584c-1.98656 24.2688-4.97664 38.7072-9.216 43.27424-3.97312 4.32128-10.19904 6.71744-18.67776 6.71744h-43.06944c-17.18272 0-25.64096-9.35936-25.64096-27.87328v-55.07072h-37.35552v0.73728c-0.98304 23.552-7.96672 42.53696-20.39808 56.7296-12.20608 12.98432-32.13312 23.32672-59.76064 30.53568l-13.45536-20.43904c26.64448-6.49216 44.83072-14.90944 54.784-24.9856 9.216-10.8544 14.4384-24.7808 15.44192-41.84064v-0.73728h-65.98656v-21.87264h218.35776z m203.1616-115.4048c11.4688 8.3968 21.15584 16.83456 29.12256 25.47712l-11.44832 11.0592h29.88032v21.89312h-74.19904c1.7408 28.3648 4.73088 50.4832 8.97024 66.10944 0.98304 4.096 2.2528 8.192 3.4816 12.02176 10.4448-17.79712 19.16928-37.9904 26.13248-60.8256l21.66784 8.88832c-9.95328 30.78144-22.40512 57.22112-37.84704 78.848 2.74432 5.79584 5.48864 10.58816 8.21248 14.68416 7.4752 10.58816 13.45536 16.11776 17.42848 16.11776 3.23584 0 6.47168-11.79648 9.70752-35.34848l21.42208 11.0592c-6.22592 33.1776-15.44192 50.01216-27.38176 50.01216-10.9568 0-22.40512-7.20896-34.36544-21.4016a105.75872 105.75872 0 0 1-10.71104-15.872 168.98048 168.98048 0 0 1-57.99936 41.12384l-13.45536-19.2512a160.31744 160.31744 0 0 0 60.49792-44.9536c-3.4816-8.66304-6.47168-18.0224-9.216-28.11904-5.46816-19.47648-8.94976-43.76576-10.69056-73.1136H686.8992v35.1232h61.00992c-0.512 43.52-2.74432 70.92224-6.71744 82.45248-3.9936 10.09664-12.45184 15.1552-25.3952 15.40096-5.98016 0-12.96384-0.49152-20.6848-1.20832l-7.20896-20.6848c9.95328 0.49152 18.16576 0.96256 25.14944 0.96256 4.48512-0.22528 7.20896-2.8672 8.704-8.17152 1.49504-6.2464 2.2528-22.1184 2.74432-47.104H686.8992v1.4336c-0.98304 44.48256-11.20256 80.05632-30.1056 106.98752l-17.94048-15.40096c15.44192-21.87264 23.6544-52.40832 24.39168-91.58656v-80.0768h102.6048c-0.512-11.28448-0.512-23.08096-0.512-35.328h23.90016c0 12.4928 0.49152 24.2688 0.98304 35.328h38.35904a184.25856 184.25856 0 0 0-25.66144-22.58944z m-475.79136 12.98432v100.9664H187.71968v66.12992c0 9.13408 4.7104 13.7216 14.17216 13.7216h124.25216c4.48512 0 8.704-1.45408 12.1856-4.34176 3.9936-3.60448 6.49216-18.0224 7.9872-43.27424l23.1424 7.20896c-2.99008 30.3104-7.20896 48.3328-12.45184 53.8624-5.95968 5.28384-13.9264 8.17152-24.14592 8.64256h-137.4208c-21.17632 0-31.6416-10.56768-31.6416-31.744v-125.00992h23.92064v32.93184h130.21184v-57.22112H153.6v-21.87264h188.47744z m233.28768 57.69216v21.89312h-140.9024V470.016h140.9024z m-66.23232-68.99712c2.99008 6.9632 5.7344 14.90944 8.47872 23.79776h94.84288v56.7296h-24.14592v-34.6112h-166.2976v34.6112h-24.1664v-56.7296h93.12256a145.65376 145.65376 0 0 0-8.47872-19.456zM512 245.76c64.69632 0 123.98592 23.08096 170.12736 61.44H606.0032A224.4608 224.4608 0 0 0 512 286.72a224.4608 224.4608 0 0 0-94.0032 20.48h-76.10368c46.12096-38.37952 105.41056-61.44 170.10688-61.44z m0-163.84c163.38944 0 305.47968 91.09504 378.2656 225.28H842.9568C774.32832 196.56704 651.75552 122.88 512 122.88c-139.75552 0-262.30784 73.68704-330.93632 184.32H133.7344C206.52032 173.01504 348.61056 81.92 512 81.92z m185.9584 117.80096l0.36864 29.32736 24.3712 17.53088-27.79136 8.00768-7.9872 27.79136-17.55136-24.3712-29.32736-0.36864 16.95744-23.06048-10.11712-28.01664 28.01664 10.11712 23.06048-16.95744z m-371.9168 0l23.06048 16.95744 28.01664-10.11712-10.11712 28.01664 16.95744 23.06048-29.32736 0.36864-17.53088 24.3712-8.00768-27.79136-27.79136-7.9872 24.3712-17.55136 0.36864-29.32736zM512 143.36l12.65664 26.97216 28.30336 4.3008-20.48 21.01248 4.83328 29.63456L512 211.29216 486.68672 225.28 491.52 195.64544l-20.48-20.992 28.30336-4.32128L512 143.36z" fill="#1eb259" p-id="2649"></path></svg>