<?xml version="1.0" standalone="no"?><!DOCTYPE svg PUBLIC "-//W3C//DTD SVG 1.1//EN" "http://www.w3.org/Graphics/SVG/1.1/DTD/svg11.dtd"><svg t="1703209152799" class="icon" viewBox="0 0 1024 1024" version="1.1" xmlns="http://www.w3.org/2000/svg" p-id="4584" xmlns:xlink="http://www.w3.org/1999/xlink" width="16" height="16"><path d="M960.8 276.2c-2.1-4.6-5.8-8.4-10.5-10.1L512.4 63.3c-0.5-0.3-0.6-0.6-0.5-0.9L73 265c-9 4.2-13.1 15.3-9 24.4 2.1 4.8 5.8 8.4 10.5 10.1L196 357.4v0.4l36.4 17.4v-0.4l280.1 127.4c0.5 0.3 0.7 0.5 0.9 0.7L756 391.6l126.9-60 0.4 0.8 68.6-31.9c8.9-4 13-14.9 8.9-24.3zM123.6 353.9c-10.3 0.2-18.6 8.8-18.6 19.3v163.3c0 10.7 8.2 19.3 18.6 19.3 10.1 0 18.4-8.8 18.4-19.3V373.2v-0.4c0-10.4-8.2-18.8-18.4-18.9zM714 482.7c-132.4 0-239.7 107.4-239.7 239.9S581.6 962.5 714 962.5c132.4 0 239.7-107.4 239.7-239.9S846.4 482.7 714 482.7z m0 434.8c-107.6 0-194.8-87.3-194.8-194.9 0-107.6 87.2-194.9 194.8-194.9v194.9l137.7 137.8c-35.2 35.3-83.9 57.1-137.7 57.1z" fill="#2fba97" p-id="4585"></path><path d="M488.6 555.9c0.2-0.4 0.4-0.8 0.6-1.1L230.7 424.6l-34.9-20.8v372.9C208 799 485.2 902.2 512.4 919.8l1.4-0.7c-49.7-50.7-80.5-120-80.5-196.5 0.1-62.4 20.8-120 55.3-166.7z" fill="#2fba97" p-id="4586"></path></svg>