<?xml version="1.0" standalone="no"?><!DOCTYPE svg PUBLIC "-//W3C//DTD SVG 1.1//EN" "http://www.w3.org/Graphics/SVG/1.1/DTD/svg11.dtd"><svg t="1716199942398" class="icon" viewBox="0 0 1024 1024" version="1.1" xmlns="http://www.w3.org/2000/svg" p-id="15996" xmlns:xlink="http://www.w3.org/1999/xlink" width="48" height="48"><path d="M518.144 377.856c-49.152 0-90.112 39.936-90.112 90.112 0 49.152 39.936 89.088 90.112 89.088 49.152 0 90.112-39.936 90.112-89.088 0-50.176-39.936-90.112-90.112-90.112z" fill="#F19D3A" p-id="15997"></path><path d="M722.944 275.456h-409.6c-14.336 0-25.6 11.264-25.6 25.6v435.2c0 14.336 11.264 25.6 25.6 25.6h409.6c14.336 0 25.6-11.264 25.6-25.6V301.056c0-14.336-11.264-25.6-25.6-25.6z m-46.08 409.6c-7.168 0-13.312-4.096-16.384-10.24-29.696-48.128-81.92-79.872-142.336-79.872s-112.64 31.744-142.336 79.872c-4.096 6.144-10.24 10.24-16.384 10.24-15.36 0-24.576-16.384-16.384-28.672 23.552-37.888 58.368-68.608 100.352-84.992-36.864-26.624-58.368-71.68-52.224-120.832 7.168-57.344 54.272-103.424 111.616-109.568 77.824-9.216 143.36 51.2 143.36 126.976 0 43.008-21.504 80.896-53.248 103.424 41.984 16.384 77.824 46.08 100.352 84.992 8.192 12.288-1.024 28.672-16.384 28.672z" fill="#F19D3A" p-id="15998"></path><path d="M512 0C229.376 0 0 229.376 0 512s229.376 512 512 512 512-229.376 512-512S794.624 0 512 0z m275.456 748.544c0 28.672-22.528 51.2-51.2 51.2H301.056c-28.672 0-51.2-22.528-51.2-51.2v-37.888h-13.312c-14.336 0-25.6-11.264-25.6-25.6v-51.2c0-14.336 11.264-25.6 25.6-25.6h13.312v-38.912h-13.312c-14.336 0-25.6-11.264-25.6-25.6v-51.2c0-14.336 11.264-25.6 25.6-25.6h13.312v-38.912h-13.312c-14.336 0-25.6-11.264-25.6-25.6v-51.2c0-14.336 11.264-25.6 25.6-25.6h13.312V286.72c0-28.672 22.528-51.2 51.2-51.2h435.2c28.672 0 51.2 22.528 51.2 51.2v461.824z" fill="#F19D3A" p-id="15999"></path></svg>