<?xml version="1.0" standalone="no"?><!DOCTYPE svg PUBLIC "-//W3C//DTD SVG 1.1//EN" "http://www.w3.org/Graphics/SVG/1.1/DTD/svg11.dtd"><svg t="1703500086089" class="icon" viewBox="0 0 1024 1024" version="1.1" xmlns="http://www.w3.org/2000/svg" p-id="7371" xmlns:xlink="http://www.w3.org/1999/xlink" width="32" height="32"><path d="M344.32 243.968l326.4 128.256 107.904-41.664-86.144-62.144s-78.464-4.288-48.832-44.608c0 0 48.256-27.904 70.336 21.632l92.608 74.112 163.2-72.96-301.632-102.656-316.288 95.808-7.552 4.224z" fill="#0b988f" p-id="7372"></path><path d="M481.216 331.584l186.432 66.432 116.864-41.536-11.648 129.408 62.656-15.552-19.712-80.448-6.528-42.368 50.688-28.032v177.344s-136 95.424-394.24-0.832V329.344l15.488 2.24zM178.176 381.184s-155.52 49.856-79.232 193.152c0 0 231.424 65.92 242.88 77.568 0 0 42.304-101.696 57.856-117.056L178.176 381.184zM433.152 548.224s-46.72 56-51.328 109.632l77.056 40.128s36.224-99.456 49.344-110.976l-75.072-38.784zM488.384 708.16s33.536-87.168 46.208-110.912c0 0 206.4 39.552 276.544 63.936 0 0 33.6 14.208 44.928 56 0 0 51.264 125.76-83.776 121.088 0 0-96-47.296-16.512-129.024 0 0 74.496-41.728 70.976 71.296 0 0-48.512 43.52-57.024-20.736 0 0 49.344-29.632 3.456-30.912 0 0-50.24 15.616-20.096 68.16 0 0 36.032 47.36 83.072 8.96 0 0 49.856-56.192-30.528-126.336 0 0-63.936-30.784-98.176 37.568 0 0-35.456 74.24 8.128 109.312l-227.2-118.4zM371.264 689.792s-38.912 52.032-104.448 58.88l43.2 12.992-1.856 45.504s91.776-93.632 111.424-94.656c0 0-42.368-29.76-48.32-22.72zM392 759.424s5.12 81.28 20.16 114.688c0 0 15.552-38.592 20.032-33.6s28.8 30.464 28.8 30.464-29.888-122.496-16-147.712l-52.992 36.16z" fill="#0b988f" p-id="7373"></path></svg>