<?xml version="1.0" standalone="no"?><!DOCTYPE svg PUBLIC "-//W3C//DTD SVG 1.1//EN" "http://www.w3.org/Graphics/SVG/1.1/DTD/svg11.dtd"><svg t="1703210195617" class="icon" viewBox="0 0 1024 1024" version="1.1" xmlns="http://www.w3.org/2000/svg" p-id="11452" xmlns:xlink="http://www.w3.org/1999/xlink" width="16" height="16"><path d="M337.92 583.68v43.52h-33.28l-61.44 163.84h565.76l-53.76-163.84h-33.28v-43.52h61.44l87.04 248.32h-691.2l99.84-248.32h58.88z m48.64 81.92l-33.28 94.72h-33.28l33.28-94.72h33.28z m56.32 0l-23.04 94.72h-33.28l23.04-94.72h33.28z m61.44 0l-23.04 94.72h-35.84l23.04-94.72h35.84z m186.88 2.56c23.04 0 43.52 17.92 43.52 43.52s-17.92 43.52-43.52 43.52c-23.04 0-43.52-17.92-43.52-43.52 0-23.04 17.92-43.52 43.52-43.52z m0 25.6c-10.24 0-17.92 7.68-17.92 17.92 0 10.24 7.68 17.92 17.92 17.92 10.24 0 17.92-7.68 17.92-17.92 0-10.24-7.68-17.92-17.92-17.92z m-163.84-501.76l289.28 128-94.72 43.52v192l-7.68 5.12c-56.32 38.4-120.32 61.44-186.88 61.44-61.44 0-122.88-20.48-174.08-58.88l-5.12-5.12-7.68-5.12v-179.2l-56.32-25.6v94.72c12.8 5.12 20.48 15.36 20.48 30.72 0 17.92-12.8 30.72-30.72 30.72s-30.72-15.36-30.72-30.72c0-12.8 7.68-25.6 20.48-30.72v-104.96l-30.72-12.8 294.4-133.12z m153.6 192l-158.72 74.24-140.8-64v140.8c40.96 28.16 89.6 43.52 138.24 46.08h5.12c53.76 0 107.52-17.92 153.6-46.08h2.56v-151.04z m-153.6-145.92l-192 89.6 189.44 84.48 192-89.6-189.44-84.48z" fill="#2c517b" p-id="11453"></path></svg>