<?xml version="1.0" standalone="no"?><!DOCTYPE svg PUBLIC "-//W3C//DTD SVG 1.1//EN" "http://www.w3.org/Graphics/SVG/1.1/DTD/svg11.dtd"><svg t="1703500256186" class="icon" viewBox="0 0 1024 1024" version="1.1" xmlns="http://www.w3.org/2000/svg" p-id="8667" xmlns:xlink="http://www.w3.org/1999/xlink" width="32" height="32"><path d="M946 949.3H75.3V189.8c0-31.3 25.4-56.7 56.8-56.7h757.1c31.4 0 56.8 25.4 56.8 56.7v759.5z" fill="#F2F2F2" p-id="8668"></path><path d="M132.1 133.2c-31.4 0-56.8 25.4-56.8 56.7v759.5h526L166.4 133.2h-34.3z" fill="#E5E5E5" p-id="8669"></path><path d="M946 189.8c0-31.3-25.4-56.7-56.8-56.7H132.1c-31.4 0-56.8 25.4-56.8 56.7v64.9H946v-64.9z" fill="#EB6836" p-id="8670"></path><path d="M166.4 133.2H132c-31.4 0-56.8 25.4-56.8 56.7v64.9h155.9l-64.7-121.6z" fill="#C74B38" p-id="8671"></path><path d="M889.2 119h-46.4V72.7c0-7.8-6.4-14.2-14.2-14.2-7.8 0-14.2 6.3-14.2 14.2V119h-77.6V72.7c0-7.8-6.4-14.2-14.2-14.2-7.8 0-14.2 6.3-14.2 14.2V119h-77.6V72.7c0-7.8-6.4-14.2-14.2-14.2-7.8 0-14.2 6.3-14.2 14.2V119h-77.6V72.7c0-7.8-6.4-14.2-14.2-14.2-7.8 0-14.2 6.3-14.2 14.2V119h-77.6V72.7c0-7.8-6.4-14.2-14.2-14.2-7.8 0-14.2 6.3-14.2 14.2V119h-77.6V72.7c0-7.8-6.4-14.2-14.2-14.2-7.8 0-14.2 6.3-14.2 14.2V119h-77.6V72.7c0-7.8-6.4-14.2-14.2-14.2-7.8 0-14.2 6.3-14.2 14.2V119H132c-39.1 0-71 31.8-71 70.8v532.8c0 7.8 6.4 14.2 14.2 14.2s14.2-6.3 14.2-14.2V268.9h648.3c7.8 0 14.2-6.3 14.2-14.2 0-7.8-6.4-14.2-14.2-14.2H89.5v-50.7c0-23.4 19.1-42.5 42.6-42.5h46.4V186c0 7.8 6.4 14.2 14.2 14.2 7.8 0 14.2-6.3 14.2-14.2v-38.7h77.6V186c0 7.8 6.4 14.2 14.2 14.2 7.8 0 14.2-6.3 14.2-14.2v-38.7h77.6V186c0 7.8 6.4 14.2 14.2 14.2s14.2-6.3 14.2-14.2v-38.7h77.6V186c0 7.8 6.4 14.2 14.2 14.2 7.8 0 14.2-6.3 14.2-14.2v-38.7h77.6V186c0 7.8 6.4 14.2 14.2 14.2 7.8 0 14.2-6.3 14.2-14.2v-38.7h77.6V186c0 7.8 6.4 14.2 14.2 14.2 7.8 0 14.2-6.3 14.2-14.2v-38.7h77.6V186c0 7.8 6.4 14.2 14.2 14.2 7.8 0 14.2-6.3 14.2-14.2v-38.7h46.4c23.5 0 42.6 19.1 42.6 42.5v50.7H813.5c-7.8 0-14.2 6.3-14.2 14.2 0 7.8 6.4 14.2 14.2 14.2h118.3v666.3H89.5v-137c0-7.8-6.4-14.2-14.2-14.2s-14.2 6.3-14.2 14.2v151.1c0 7.8 6.4 14.2 14.2 14.2H946c7.8 0 14.2-6.3 14.2-14.2V189.8c0-39-31.9-70.8-71-70.8z" fill="" p-id="8672"></path><path d="M381.4 419.4l18.6 30.9c5.4 9 18.9 9 24.3 0l18.6-30.9h33.6c7.8 0 14.2-6.3 14.2-14.2v-75.6c0-7.8-6.4-14.2-14.2-14.2H344.1c-7.8 0-14.2 6.3-14.2 14.2v75.6c0 7.8 6.4 14.2 14.2 14.2h37.3zM556.1 515.7c-7.8 0-14.2 6.3-14.2 14.2v75.6c0 7.8 6.4 14.2 14.2 14.2h37.4l18.6 30.9c5.4 9 18.9 9 24.3 0l18.6-30.9h33.6c7.8 0 14.2-6.3 14.2-14.2v-75.6c0-7.8-6.4-14.2-14.2-14.2H556.1z" fill="" p-id="8673"></path><path d="M230.5 716c-7.8 0-14.2 6.3-14.2 14.2v75.6c0 7.8 6.4 14.2 14.2 14.2h37.4l18.6 30.9c5.4 9 18.9 9 24.3 0l18.6-30.9H363c7.8 0 14.2-6.3 14.2-14.2v-75.6c0-7.8-6.4-14.2-14.2-14.2H230.5z" fill="" p-id="8674"></path><path d="M170.9 473.2c0 7.8 6.4 14.2 14.2 14.2h651.1c7.8 0 14.2-6.3 14.2-14.2S844 459 836.2 459H185.1c-7.9 0.1-14.2 6.4-14.2 14.2z" fill="" p-id="8675"></path><path d="M358.3 343.8h104.1V391H435c-5 0-9.6 2.6-12.2 6.9l-10.5 17.5-10.5-17.5c-2.6-4.3-7.2-6.9-12.2-6.9h-31.2l-0.1-47.2z" fill="#62C9CC" p-id="8676"></path><path d="M185.1 687h651.1c7.8 0 14.2-6.3 14.2-14.2 0-7.8-6.4-14.2-14.2-14.2H185.1c-7.8 0-14.2 6.3-14.2 14.2 0 7.9 6.3 14.2 14.2 14.2z" fill="" p-id="8677"></path><path d="M674.4 591.3H647c-5 0-9.6 2.6-12.2 6.9l-10.5 17.5-10.5-17.5c-2.6-4.3-7.2-6.9-12.2-6.9h-31.2v-47.2h104.1v47.2z" fill="#F7D04A" p-id="8678"></path><path d="M185.1 887.9h651.1c7.8 0 14.2-6.3 14.2-14.2 0-7.8-6.4-14.2-14.2-14.2H185.1c-7.8 0-14.2 6.3-14.2 14.2 0 7.9 6.3 14.2 14.2 14.2z" fill="" p-id="8679"></path><path d="M348.8 791.6h-27.4c-5 0-9.6 2.6-12.2 6.9L298.6 816l-10.5-17.5c-2.6-4.3-7.2-6.9-12.2-6.9h-31.2v-47.2h104.1v47.2z" fill="#EB6836" p-id="8680"></path></svg>