<?xml version="1.0" standalone="no"?><!DOCTYPE svg PUBLIC "-//W3C//DTD SVG 1.1//EN" "http://www.w3.org/Graphics/SVG/1.1/DTD/svg11.dtd"><svg t="1713419252012" class="icon" viewBox="0 0 1024 1024" version="1.1" xmlns="http://www.w3.org/2000/svg" p-id="24307" xmlns:xlink="http://www.w3.org/1999/xlink" width="64" height="64"><path d="M512 1024C229.216 1024 0 794.784 0 512S229.216 0 512 0s512 229.216 512 512-229.216 512-512 512z m69.152-432.64c-2.88 0-23.264-19.648-8.704-55.936 32.032-30.752 58.112-81.12 58.112-131.584 0-75.52-55.168-114.72-113.344-114.72-60.96 0-113.28 39.232-113.28 114.72 0 50.368 23.264 100.704 55.168 131.584 11.616 30.72-8.768 53.12-14.56 55.904-63.904 22.4-136.576 61.568-136.576 103.488v14.08c0 53.088 107.52 67.104 209.248 67.104 98.848 0 206.4-11.104 206.4-67.136v-14.08c-2.848-41.888-78.464-83.84-142.464-103.456z m157.952-131.904c-2.08 0-14.4-4.16-6.176-29.376 20.576-20.96 35.04-56.608 35.04-92.288C767.968 285.408 735.008 256 693.76 256c-28.832 0-55.648 14.72-65.952 44 24.704 20.992 41.248 52.448 41.248 94.336 0 44.096-20.64 86.016-43.264 113.28 35.008 12.576 88.64 39.808 103.04 81.824 53.568-2.144 103.04-14.72 103.04-46.208v-10.496c2.048-31.36-47.456-58.56-92.8-73.28z m-454.272 0c-43.264 14.72-92.704 41.92-92.8 73.28v10.496c0 31.488 49.472 44.096 103.04 46.208 14.4-42.016 68.032-69.248 103.04-81.856-22.624-27.232-43.264-69.152-43.264-113.248 0-41.92 16.544-73.344 41.28-94.336C385.76 270.72 358.976 256 330.176 256c-39.2 0-72.16 29.376-74.24 81.792 0 35.68 14.464 71.328 35.04 92.288 8.224 25.248-4.096 29.376-6.176 29.376z" fill="#4A90E2" p-id="24308"></path></svg>