<?xml version="1.0" standalone="no"?><!DOCTYPE svg PUBLIC "-//W3C//DTD SVG 1.1//EN" "http://www.w3.org/Graphics/SVG/1.1/DTD/svg11.dtd"><svg t="1703153219996" class="icon" viewBox="0 0 1024 1024" version="1.1" xmlns="http://www.w3.org/2000/svg" p-id="52206" id="mx_n_1703153219996" xmlns:xlink="http://www.w3.org/1999/xlink" width="16" height="16"><path d="M942.1 464.8c37.5-38.7 14.3-103.6-39.2-109.8l-197.5-22.9c-21.3-2.5-39.9-15.2-49.9-34.1l-93.1-175.7c-25.2-47.6-94.1-45.6-116.5 3.3l-82.8 180.7c-8.9 19.4-26.8 33.3-47.9 36.9l-195.8 34.2c-53.1 9.3-72.5 75.4-32.8 111.9L232.8 624a65.16 65.16 0 0 1 20.3 57l-28 196.8c-7.6 53.3 49.3 92.2 96.2 65.8l173.2-97.5c18.6-10.5 41.3-11.1 60.5-1.7l178.6 87.4c48.4 23.7 102.9-18.4 92.3-71.2l-39.2-194.9c-4.2-21 2.1-42.7 17-58l138.4-142.9z" fill="#efb336" p-id="52207"></path></svg>