<?xml version="1.0" standalone="no"?><!DOCTYPE svg PUBLIC "-//W3C//DTD SVG 1.1//EN" "http://www.w3.org/Graphics/SVG/1.1/DTD/svg11.dtd"><svg t="1703210354137" class="icon" viewBox="0 0 1024 1024" version="1.1" xmlns="http://www.w3.org/2000/svg" p-id="12793" xmlns:xlink="http://www.w3.org/1999/xlink" width="16" height="16"><path d="M921.6 659.2c-22.4-32-67.2-73.6-131.2-76.8 28.8-48 44.8-105.6 44.8-169.6-6.4-166.4-144-297.6-310.4-294.4-166.4 3.2-297.6 137.6-297.6 304 0 32 6.4 67.2 16 96H54.4c-3.2 0-3.2 0-6.4 3.2s-3.2 3.2-3.2 6.4V896c0 3.2 0 3.2 3.2 6.4s3.2 3.2 6.4 3.2H544l377.6-208 3.2-3.2c3.2-12.8 3.2-28.8-3.2-35.2zM534.4 163.2c137.6 3.2 249.6 112 256 246.4 3.2 67.2-19.2 128-57.6 176-12.8 3.2-22.4 6.4-35.2 12.8-38.4 16-73.6 38.4-112 60.8l-291.2-121.6c-19.2-35.2-25.6-76.8-25.6-115.2 0-144 121.6-262.4 265.6-259.2zM99.2 860.8c-3.2 0-3.2 0-6.4-3.2s-3.2-3.2-3.2-6.4v-278.4c0-6.4 3.2-9.6 9.6-9.6h80c3.2 0 3.2 0 6.4 3.2s3.2 3.2 3.2 6.4v278.4c0 3.2 0 3.2-3.2 6.4s-3.2 3.2-6.4 3.2H99.2z m428.8 0H230.4v-294.4h16l294.4 124.8c-28.8 16-54.4 25.6-140.8 12.8L288 681.6c-3.2 0-6.4 0-12.8 3.2s-9.6 9.6-9.6 16c0 9.6 6.4 16 16 19.2l112 22.4c89.6 22.4 163.2-16 163.2-16s96-51.2 163.2-89.6c73.6-44.8 128 12.8 150.4 35.2 3.2 0-342.4 188.8-342.4 188.8z" fill="#e84c5c" p-id="12794"></path><path d="M489.6 460.8c-16 12.8-28.8 22.4-38.4 32l-16-19.2c3.2-3.2 6.4-9.6 6.4-16v-67.2h-19.2v-28.8h48v83.2c6.4-3.2 9.6-9.6 16-12.8 3.2 9.6 3.2 19.2 3.2 28.8zM454.4 288c9.6 12.8 19.2 28.8 25.6 41.6l-25.6 16c-6.4-12.8-16-25.6-25.6-41.6l25.6-16z m38.4 6.4h134.4v99.2h-54.4v16h64v22.4h-44.8c12.8 12.8 28.8 25.6 51.2 32-6.4 6.4-9.6 16-16 28.8-22.4-9.6-38.4-25.6-51.2-44.8v57.6h-32V448c-12.8 19.2-28.8 35.2-48 51.2-6.4-6.4-12.8-16-19.2-22.4 25.6-16 41.6-28.8 51.2-41.6H480v-22.4h64v-16h-54.4V294.4z m25.6 38.4h25.6v-16h-25.6v16z m0 38.4h25.6v-16h-25.6v16z m80-54.4h-25.6v16h25.6v-16z m0 54.4v-16h-25.6v16h25.6z" fill="#e84c5c" p-id="12795"></path></svg>