<?xml version="1.0" standalone="no"?><!DOCTYPE svg PUBLIC "-//W3C//DTD SVG 1.1//EN" "http://www.w3.org/Graphics/SVG/1.1/DTD/svg11.dtd"><svg t="1716781599332" class="icon" viewBox="0 0 1024 1024" version="1.1" xmlns="http://www.w3.org/2000/svg" p-id="10061" xmlns:xlink="http://www.w3.org/1999/xlink" width="32" height="32"><path d="M971.841996 628.024948c-6.386694-14.902287-14.902287-29.804574-21.288981-36.191268-6.386694-14.902287-21.288981-21.288981-29.804574-29.804574-6.386694 0-6.386694-6.386694-14.902287-6.386694s-14.902287-6.386694-21.288981-6.386695c-6.386694 0-14.902287 0-21.288982 6.386695-6.386694 0-21.288981 6.386694-29.804574 14.902287l-29.804573 29.804573 138.378378 138.378379 21.288981-21.288982c6.386694-6.386694 14.902287-14.902287 14.902287-21.288981 6.386694-6.386694 6.386694-21.288981 6.386695-29.804574v-21.288981l-12.773389-17.031185m-387.45946 195.858628c-6.386694 6.386694-14.902287 14.902287-14.902287 21.288981 0 6.386694-6.386694 6.386694-6.386694 14.902287s-6.386694 6.386694-6.386694 21.288981c0 6.386694-6.386694 14.902287-6.386695 21.288982l-6.386694 21.288981c0 6.386694-6.386694 21.288981-6.386694 21.288981 0 21.288981 0 36.191268 6.386694 51.093555 6.386694 6.386694 21.288981 21.288981 44.706861 21.288982h6.386694c6.386694 0 14.902287 0 21.288981-6.386695 6.386694 0 14.902287-6.386694 29.804574-6.386694 6.386694 0 14.902287-6.386694 21.288981-6.386695 6.386694-6.386694 14.902287-6.386694 21.288982-6.386694l21.288981-14.902287s123.476091-131.991684 197.987526-204.37422L767.467775 634.411642c-65.995842 74.511435-183.085239 189.471933-183.085239 189.471934" fill="#B6CCF9" p-id="10062"></path><path d="M731.276507 210.760915H358.719335c-14.902287 0-29.804574-14.902287-29.804574-36.191268s14.902287-36.191268 29.804574-36.191269h372.557172c21.288981 0 36.191268 21.288981 36.191268 36.191269s-14.902287 36.191268-36.191268 36.191268m0 219.276507H358.719335c-14.902287 0-29.804574-14.902287-29.804574-36.191268s14.902287-36.191268 29.804574-36.191268h372.557172c21.288981 0 36.191268 21.288981 36.191268 36.191268s-14.902287 36.191268-36.191268 36.191268M863.268191 0H154.345114c-21.288981 0-44.706861 21.288981-44.70686 44.706861V979.293139c0 21.288981 21.288981 44.706861 44.70686 44.706861h255.467776c29.804574 0 44.706861-14.902287 44.706861-36.191268 0-102.18711 80.898129-204.37422 80.898128-204.374221l276.756757-270.370062s51.093555-51.093555 131.991684-14.902287c29.804574 0 44.706861-21.288981 44.706861-44.706861V44.706861c0-21.288981-21.288981-44.706861-44.706861-44.706861h-80.898129z" fill="#4576F3" p-id="10063"></path></svg>