<?xml version="1.0" standalone="no"?><!DOCTYPE svg PUBLIC "-//W3C//DTD SVG 1.1//EN" "http://www.w3.org/Graphics/SVG/1.1/DTD/svg11.dtd"><svg t="1713419297093" class="icon" viewBox="0 0 1024 1024" version="1.1" xmlns="http://www.w3.org/2000/svg" p-id="30392" xmlns:xlink="http://www.w3.org/1999/xlink" width="64" height="64"><path d="M686.592 393.429333c0-31.701333-23.594667-57.514667-52.48-57.514666-28.928 0-52.522667 25.813333-52.522667 57.514666 0 31.744 23.594667 57.514667 52.48 57.514667 29.013333-0.085333 52.48-25.898667 52.48-57.514667z" fill="#d4237a" p-id="30393" data-spm-anchor-id="a313x.search_index.0.i7.c3033a81tj3YLR" class="selected"></path><path d="M512 0C229.205333 0 0 229.205333 0 512s229.205333 512 512 512 512-229.205333 512-512S794.794667 0 512 0zM292.437333 308.309333c0-15.36 11.861333-28.202667 25.813334-28.202666 13.952 0 25.813333 12.928 25.813333 28.16v170.112c0 15.36-11.861333 28.16-25.813333 28.16-13.952 0-25.813333-12.928-25.813334-28.16V308.309333z m197.077334 417.706667H308.821333c-21.76 0-21.76-33.792 0-33.792h180.693334c21.76 0 21.76 33.792 0 33.792z m0-106.666667H308.821333c-21.76 0-21.76-33.877333 0-33.877333h180.693334c21.76 0 21.76 33.834667 0 33.834667z m69.546666-157.866666c-17.834667 23.594667-44.842667 38.656-74.965333 38.656-53.717333 0-97.493333-47.872-97.493333-106.666667 0-58.88 43.690667-106.752 97.493333-106.752 30.122667 0 57.130667 15.061333 75.008 38.656 17.834667-23.594667 44.842667-38.656 74.965333-38.656 53.717333 0 97.493333 47.872 97.493334 106.709333 0 58.837333-43.690667 106.709333-97.493334 106.709334-30.122667 0-57.002667-15.061333-74.965333-38.656z m167.594667 210.645333l-66.858667 66.858667a17.066667 17.066667 0 0 1-23.893333 0l-43.605333-43.562667a17.066667 17.066667 0 0 1 0-23.893333 17.066667 17.066667 0 0 1 23.893333 0l31.658667 31.616 54.912-54.912a17.066667 17.066667 0 0 1 23.893333 0 17.066667 17.066667 0 0 1 0 23.893333z m0-99.712l-66.858667 66.901333a17.066667 17.066667 0 0 1-23.893333 0l-43.605333-43.605333a17.066667 17.066667 0 0 1 0-23.893333 17.066667 17.066667 0 0 1 23.893333 0l31.658667 31.658666 54.912-54.954666a17.066667 17.066667 0 0 1 23.893333 0 17.066667 17.066667 0 0 1 0 23.893333z" fill="#d4237a" p-id="30394" data-spm-anchor-id="a313x.search_index.0.i5.c3033a81tj3YLR" class="selected"></path><path d="M431.701333 393.429333c0 31.786667 23.466667 57.514667 52.48 57.514667 29.013333 0 52.48-25.728 52.48-57.514667 0-31.744-23.466667-57.514667-52.48-57.514666-29.013333 0-52.48 25.770667-52.48 57.514666z" fill="#d4237a" p-id="30395" data-spm-anchor-id="a313x.search_index.0.i6.c3033a81tj3YLR" class="selected"></path><path d="M318.250667 506.666667c13.952 0 25.813333-12.928 25.813333-28.16v-170.24c0-15.36-11.861333-28.16-25.813333-28.16-13.952 0-25.813333 12.928-25.813334 28.16v170.112c0 15.36 11.861333 28.288 25.813334 28.288z m171.264 78.805333H308.821333c-21.76 0-21.76 33.834667 0 33.834667h180.693334c21.76 0 21.76-33.834667 0-33.834667z m0 106.752H308.821333c-21.76 0-21.76 33.792 0 33.792h180.693334c21.76 0 21.76-33.792 0-33.792z m213.248-143.701333l-54.912 54.954666-31.658667-31.658666a17.066667 17.066667 0 0 0-23.893333 0 17.066667 17.066667 0 0 0 0 23.893333l43.605333 43.605333a17.066667 17.066667 0 0 0 23.893333 0l66.858667-66.901333a17.066667 17.066667 0 0 0 0-23.893333 17.066667 17.066667 0 0 0-23.893333 0z m0 99.712l-54.912 54.912-31.658667-31.616a17.066667 17.066667 0 0 0-23.893333 0 17.066667 17.066667 0 0 0 0 23.893333l43.605333 43.562667a17.066667 17.066667 0 0 0 23.893333 0l66.858667-66.858667a17.066667 17.066667 0 0 0 0-23.893333 17.066667 17.066667 0 0 0-23.893333 0z m28.8-254.805334c0-58.837333-43.690667-106.709333-97.493334-106.709333-30.122667 0-57.130667 15.061333-74.965333 38.656-17.92-23.594667-44.885333-38.656-75.008-38.656-53.717333 0-97.493333 47.872-97.493333 106.709333 0 58.837333 43.690667 106.709333 97.493333 106.709334 30.122667 0 57.130667-15.061333 75.008-38.656 17.834667 23.594667 44.842667 38.656 74.965333 38.656 53.802667 0 97.493333-47.872 97.493334-106.666667z m-247.381334 57.429334c-28.885333 0-52.48-25.813333-52.48-57.514667 0-31.744 23.594667-57.514667 52.48-57.514667 28.928 0 52.48 25.770667 52.48 57.514667 0 31.701333-23.552 57.514667-52.48 57.514667z m97.408-57.429334c0-31.701333 23.594667-57.514667 52.48-57.514666 28.928 0 52.48 25.813333 52.48 57.514666 0 31.744-23.552 57.514667-52.48 57.514667-28.885333-0.085333-52.48-25.898667-52.48-57.514667z" fill="#FFFFFF" p-id="30396"></path></svg>