<?xml version="1.0" standalone="no"?><!DOCTYPE svg PUBLIC "-//W3C//DTD SVG 1.1//EN" "http://www.w3.org/Graphics/SVG/1.1/DTD/svg11.dtd"><svg t="1716199632096" class="icon" viewBox="0 0 1024 1024" version="1.1" xmlns="http://www.w3.org/2000/svg" p-id="9313" id="mx_n_1716199632097" xmlns:xlink="http://www.w3.org/1999/xlink" width="48" height="48"><path d="M515.5 511.5m-434.5 0a434.5 434.5 0 1 0 869 0 434.5 434.5 0 1 0-869 0Z" fill="#0ea418" p-id="9314" data-spm-anchor-id="a313x.search_index.0.i3.6f583a81uRehSL" class="selected"></path><path d="M728.23 328c-41.83 2-109 9.38-163.41 35.5a97.93 97.93 0 0 1-84.82 0C425.61 337.4 358.42 330 316.58 328a38 38 0 0 0-39.77 38v295.61a40.41 40.41 0 0 0 40 40.41c116.92 1 166.78 46.08 205.56 46.08 40.43 0 88.68-45.1 205.63-46.1a40.4 40.4 0 0 0 40-40.41V366a38 38 0 0 0-39.77-38z m-27.05 131.57a48.83 48.83 0 0 1-48.84 48.84 48.84 48.84 0 0 1-48.84-48.84v-52.78a17.29 17.29 0 0 1 10.5-15.88 205.24 205.24 0 0 1 38.37-12 215.14 215.14 0 0 1 35.76-4.48A12.59 12.59 0 0 1 701.18 387z" fill="#FFFFFF" p-id="9315"></path></svg>