<?xml version="1.0" standalone="no"?><!DOCTYPE svg PUBLIC "-//W3C//DTD SVG 1.1//EN" "http://www.w3.org/Graphics/SVG/1.1/DTD/svg11.dtd"><svg t="1703500206242" class="icon" viewBox="0 0 1024 1024" version="1.1" xmlns="http://www.w3.org/2000/svg" p-id="8192" xmlns:xlink="http://www.w3.org/1999/xlink" width="32" height="32"><path d="M930.883988 279.31097 744.706941 279.31097c-12.853668 0-23.274525 10.420857-23.274525 23.274525 0 12.853668 10.420857 23.274525 23.274525 23.274525l186.177047 0c12.853668 0 23.274525 10.420857 23.274525 23.274525l0 605.061034c0 12.853668-10.420857 23.274525-23.274525 23.274525L93.096856 977.470105c-12.853668 0-23.274525-10.420857-23.274525-23.274525L69.822331 349.134546c0-12.853668 10.420857-23.274525 23.274525-23.274525l418.903144 0c1.245139 0 2.451966-0.134092 3.639638-0.306496 10.095206 2.62437 21.148211-1.398387 26.626823-10.478325L718.271678 92.635867c6.513036-10.784821 2.643526-24.596288-8.639351-30.821985-11.282877-6.225696-25.726492-2.52859-32.239528 8.256231l-165.565204 209.240856-50.954928 0L253.509099 11.337855c-6.513036-10.784821-20.956651-14.481927-32.239528-8.256231C209.967538 9.30732 206.117185 23.118787 212.630221 33.903608l189.912464 245.407361L93.096856 279.31097C54.555008 279.31097 23.292436 310.573542 23.292436 349.134546l0 605.061034c0 38.561004 31.262572 69.80442 69.80442 69.80442l837.787132 0c38.561004 0 69.823576-31.262572 69.823576-69.80442L1000.707564 349.134546C1000.707564 310.573542 969.444992 279.31097 930.883988 279.31097L930.883988 279.31097z" fill="#db639b" p-id="8193"></path><path d="M560.886081 661.262213c-0.038312-18.025785-0.038312-36.070725-0.038312-54.09651 0-7.317587-0.057468-14.635175 0.038312-21.933606 0.019156-1.781507-0.517212-2.375343-2.317875-2.375343-11.225409 0.057468-22.431662 0.038312-33.657071 0.038312-2.451966 0-2.471122-0.038312-2.471122-2.509434 0-9.482214 0-18.964428 0-28.446642 0-2.413654 0.038312-2.471122 2.509434-2.471122 11.091317 0 22.182634 0 33.273951 0 2.586058 0 2.605214-0.038312 2.605214-2.566902-0.019156-10.976381-0.019156-21.933606-0.019156-32.909987 0-0.612992 0.114936-1.206827 0.172404-1.896443 10.26761 0 20.401127 0 30.649581 0 0.057468 0.823707 0.153248 1.551635 0.153248 2.279563 0 11.033849 0.019156 22.067698-0.057468 33.101547-0.019156 1.609103 0.593836 2.011379 2.088003 2.011379 8.428635-0.038312 16.857269-0.019156 25.285904-0.019156 2.356187 0 2.394498 0.076624 2.394498 2.375343-0.019156 9.59715-0.038312 19.213456 0.038312 28.810606 0.019156 1.704883-0.4789 2.279563-2.202939 2.260407-7.988047-0.076624-15.99525 0-23.983297-0.057468-1.724039-0.019156-2.375343 0.440588-2.375343 2.298719 0.057468 22.125166 0.038312 44.250332 0.038312 66.375498 0 0.612992-0.153248 1.321763 0.09578 1.838975 0.210716 0.421432 1.034423 0.957799 1.379231 0.842863 6.129916-2.107159 12.240676-4.310097 18.351436-6.49388 1.168515-0.421432 2.298719-0.957799 3.48639-1.225983 0.402276-0.09578 1.111047 0.402276 1.398387 0.823707 0.229872 0.325652 0.076624 0.957799 0.076624 1.455855 0 9.539682-0.019156 19.079364 0.038312 28.638202 0.019156 1.417543-0.440588 2.164627-1.800663 2.566902-4.923089 1.455855-9.827022 2.950022-14.750111 4.444189-2.183783 0.67046-4.367565 1.379231-6.570504 1.992223-1.398387 0.38312-1.743195 1.225983-1.743195 2.605214 0.038312 26.032988 0.038312 52.065975 0.038312 78.098963 0 4.769841 0.134092 9.558838-0.038312 14.309523-0.363964 9.98027-2.969178 19.213456-9.846178 26.780071-3.29483 3.639638-7.432523 5.976668-12.068272 7.719863-2.566902 0.957799-5.018869 0.996111-7.585771 0.996111-11.225409 0.038312-22.431662 0.019156-33.657071 0.019156-0.727928 0-1.455855 0-2.317875 0-0.057468-0.785396-0.153248-1.398387-0.153248-2.011379 0-9.233186 0-18.466372 0-27.699559 0-2.451966 0.210716-2.490278 2.566902-1.838975 6.513036 1.819819 13.17932 2.681838 19.864759 1.570791 6.570504-1.091891 10.995537-4.961401 10.995537-12.566328 0.038312-25.534932 0.019156-51.069864 0.019156-76.604796 0-2.164627-0.325652-2.260407-2.451966-1.666571-4.061069 1.111047-8.141295 2.068847-12.22152 3.10327-5.938356 1.494167-11.876713 2.969178-17.815069 4.482501-1.858131 0.4789-3.697106 0.996111-5.555236 1.475011-1.206827 0.306496-1.570791-0.363964-1.570791-1.417543 0-1.743195 0-3.467234 0-5.210429 0-8.179607 0.019156-16.359214-0.038312-24.538821 0-1.340919 0.38312-2.030535 1.762351-2.317875 7.145183-1.532479 14.271211-3.122426 21.397239-4.693217 4.884777-1.091891 9.769554-2.241251 14.673487-3.29483C560.464649 663.388527 560.886081 662.679756 560.886081 661.262213L560.886081 661.262213z" fill="#db639b" p-id="8194"></path><path d="M482.595559 774.780597c-12.336456 0-24.672912 0-37.009369 0-2.337031 0-2.471122-0.172404-2.222095-2.43281 0.325652-3.026646 0.76624-6.034136 0.938643-9.060782 0.67046-10.631573 1.360075-21.282303 1.858131-31.933032 0.555524-12.068272 1.494167-24.155701 1.187671-36.223973-0.555524-22.10601-1.800663-44.21202-3.045802-66.298874-0.229872-4.061069-1.379231-8.217919-2.81593-12.049116-3.48639-9.194874-9.78871-16.225122-17.910849-21.72289-6.378944-4.310097-13.332568-7.298431-20.650155-9.463058-6.30232-1.858131-12.719576-2.873398-19.38586-2.796774-15.688754 0.210716-31.358352 0.076624-47.047106 0.057468-2.202939 0-2.394498-0.229872-1.953911-2.394498 0.57468-2.91171 1.379231-5.785108 1.743195-8.715975 0.268184-2.088003 1.130203-2.566902 3.122426-2.566902 24.289793 0.057468 48.598741 0.038312 72.888534 0.038312 21.876138 0 43.771432 0 65.647571 0 2.375343 0 2.43281-0.09578 2.43281-2.356187 0-8.92669 0-17.853381 0-26.780071 0-3.064958 0.019156-3.064958-3.045802-3.064958-44.077928 0-88.1367 0-132.214629 0-0.555524 0-1.111047-0.019156-1.666571 0-1.551635 0.076624-1.953911-0.651304-1.609103-2.088003 0.402276-1.743195 0.727928-3.505546 1.015267-5.267897 0.67046-4.022757 1.340919-8.026359 1.953911-12.049116 0.28734-1.838975 0.440588-3.67795 0.67046-5.612704-12.681264 0-24.807004 0-37.469112 0-0.402276 3.428922-0.727928 6.742908-1.206827 10.037738-0.612992 4.156849-1.398387 8.275387-2.030535 12.432236-0.38312 2.52859-0.344808 2.547746-2.988334 2.547746-9.290654 0-18.600464 0-27.891118 0-32.546023 0-65.092047 0-97.618914 0-3.026646 0-3.00749 0-3.00749 3.084114 0 8.677663 0 17.355325 0 26.032988 0 3.084114-0.019156 3.084114 3.026646 3.084114 39.978547 0 79.957094 0 119.93564 0 0.612992 0 1.245139 0.019156 1.858131 0 1.283451-0.038312 1.781507 0.57468 1.628259 1.858131-0.38312 3.064958-0.689616 6.129916-1.072735 9.194874-0.325652 2.586058-0.363964 2.586058-2.969178 2.586058-26.645979 0-53.311114 0-79.957094 0-4.731529 0-4.041913-0.325652-4.041913 4.080225 0 61.682281 0 123.345406 0 185.027687 0 2.777618 0.019156 2.777618-2.758462 2.796774-11.780933 0-23.561865 0-35.323642 0-3.620482 0-2.930866 0.076624-2.930866 2.854242-0.019156 8.984158 0.057468 17.968317-0.057468 26.971631-0.019156 1.877287 0.4789 2.413654 2.356187 2.413654 103.327399-0.038312 206.654798-0.038312 309.982197-0.038312 2.394498 0 2.43281-0.057468 2.43281-2.566902 0-8.984158 0-17.968317 0-26.971631C485.315709 774.780597 485.315709 774.780597 482.595559 774.780597zM409.764492 661.472929c0 5.076337 0 10.152674 0 15.248166 0 2.700994 0.019156 2.72015-2.643526 2.72015-26.396951 0-52.793903 0-79.190854 0-26.262859 0-52.544875 0-78.807734 0-2.835086 0-2.81593 0-2.81593-2.873398 0.019156-5.076337 0.019156-10.152674 0-15.248166 0-2.91171-0.019156-2.91171 2.988334-2.91171 17.853381 0 35.687605 0 53.540986 0 34.634026 0 69.268052 0 103.902078 0C409.783648 658.388815 409.764492 658.388815 409.764492 661.472929zM248.662634 612.586847c25.956364 0 51.931883 0 77.907403 0 16.244278 0 32.488556-0.28734 48.713677 0.114936 9.654618 0.229872 18.677088 3.237362 25.764804 10.26761 1.838975 1.819819 3.00749 4.329253 4.425033 6.570504 0.632148 0.996111 0.038312 1.494167-0.976955 1.570791-0.555524 0.038312-1.111047 0.019156-1.666571 0.019156-25.5924 0-51.1848 0-76.7772 0-25.649868 0-51.318892 0-76.968759 0-2.777618 0-2.758462 0-2.758462-2.758462 0.019156-4.463345 0.019156-8.92669 0-13.390036C246.287292 612.663471 246.306448 612.586847 248.662634 612.586847zM408.251169 756.563253c-0.689616 5.478613-1.398387 10.938069-2.011379 16.416682-0.153248 1.340919-0.708772 1.896443-2.030535 1.781507-0.421432-0.038312-0.862019 0-1.302607 0-51.203956 0-102.388755 0-153.573555 0-3.064958 0-3.045802 0-3.045802-3.026646 0.019156-5.133805 0-10.286766 0-15.439726 0-2.566902 0-2.586058 2.586058-2.586058 26.224547 0 52.429939 0 78.654486 0 26.090456 0 52.180911 0 78.271367 0C408.615133 753.728166 408.615133 753.728166 408.251169 756.563253zM407.810582 726.488352c-0.67046-0.057468-1.360075 0-2.049691 0-51.989351 0-103.978702 0-155.948898 0-0.689616 0-1.436699 0.172404-2.030535-0.057468-0.593836-0.249028-1.436699-0.900331-1.436699-1.379231-0.09578-5.63186-0.09578-11.282877 0-16.914737 0.019156-0.4789 0.862019-1.111047 1.455855-1.379231 0.517212-0.229872 1.225983-0.057468 1.838975-0.057468 26.147924 0 52.295847 0 78.443771 0 26.262859 0 52.544875 0 78.807734 0 2.892554 0 2.892554 0 2.892554 2.854242 0 4.961401-0.038312 9.922802 0.038312 14.865047C409.82196 725.894516 409.381373 726.622444 407.810582 726.488352z" fill="#db639b" p-id="8195"></path><path d="M825.487742 664.020675c-4.942245-2.030535-8.754286-5.574392-12.22152-9.482214-8.543571-9.616306-14.922515-20.650155-20.822559-31.971344-1.264295-2.413654-1.168515-2.52859 1.666571-2.52859 10.229298 0 20.458595-0.038312 30.687893 0.019156 1.762351 0.019156 2.375343-0.498056 2.356187-2.337031-0.09578-8.237075-0.038312-16.493306-0.038312-24.73038 0-2.662682 0.019156-2.662682-2.700994-2.662682-7.375055 0-14.750111 0-22.125166 0-2.394498 0-2.547746-0.229872-2.011379-2.62437 0.28734-1.264295 0.536368-2.547746 0.76624-3.831198 1.551635-8.601039 3.064958-17.182921 4.654905-25.78396 0.402276-2.145471 0.268184-2.451966-1.877287-2.451966-9.731242-0.019156-19.462484 0.019156-29.193726-0.019156-1.455855 0-2.049691 0.498056-2.317875 1.953911-1.819819 10.305922-3.735418 20.592687-5.574392 30.898609-0.249028 1.360075-0.823707 1.877287-2.202939 1.877287-6.934468-0.038312-13.888091-0.057468-20.822559 0-1.666571 0.019156-2.088003-0.632148-2.088003-2.202939 0.057468-12.585484 0.057468-25.170968 0-37.756452 0-1.743195 0.612992-2.202939 2.260407-2.260407 24.960252-0.747084 49.920505-1.570791 74.899913-2.317875 1.724039-0.057468 2.222095-0.651304 2.202939-2.317875-0.076624-7.988047-0.076624-15.99525 0-23.983297 0.019156-1.685727-0.440588-2.298719-2.202939-2.260407-9.59715 0.268184-19.213456 0.421432-28.810606 0.612992-29.117102 0.593836-58.253359 1.206827-87.370461 1.781507-22.987186 0.459744-45.974371 0.881175-68.961557 1.283451-1.704883 0.019156-2.222095 0.593836-2.202939 2.298719 0.076624 7.873111 0.038312 15.746222 0.038312 23.619333 0 2.605214 0.019156 2.643526 2.547746 2.605214 24.845316-0.402276 49.690633-0.785396 74.555105-1.225983 1.743195-0.038312 2.222095 0.555524 2.222095 2.260407-0.057468 12.528016-0.076624 25.036876 0 37.564892 0.019156 1.838975-0.593836 2.356187-2.356187 2.337031-6.20654-0.076624-12.393924-0.019156-18.600464-0.019156-5.382833 0-5.267897-0.019156-6.264008-5.421145-1.475011-7.968891-3.160738-15.89947-4.731529-23.868361-0.249028-1.302607-0.919487-1.704883-2.183783-1.704883-8.620195 0.038312-17.240389 0-25.841428 0.019156-1.877287 0-2.049691 0.363964-1.628259 2.298719 0.747084 3.448078 1.417543 6.915312 2.126315 10.363389 1.072735 5.210429 2.088003 10.440013 3.218206 15.650442 0.536368 2.451966 0.459744 2.643526-2.126315 2.643526-7.317587 0-14.635175 0-21.933606 0-2.72015 0-2.72015 0-2.72015 2.643526 0 8.179607 0 16.359214 0 24.538821 0 2.471122 0.019156 2.509434 2.471122 2.509434 9.673774 0 19.347548 0 29.002166 0 0.555524 0 1.111047-0.019156 1.666571 0.019156 1.072735 0.09578 1.436699 0.555524 0.862019 1.609103-3.10327 5.82342-5.900044 11.857557-9.367278 17.470261-6.034136 9.78871-13.390036 18.42806-23.236213 24.692068-0.747084 0.4789-1.360075 1.800663-1.360075 2.739306-0.09578 8.428635-0.057468 16.857269-0.057468 25.285904 0 0.747084-0.038312 1.494167 0.019156 2.222095 0.076624 1.053579 0.593836 1.455855 1.628259 1.015267 1.302607-0.555524 2.643526-1.053579 3.907822-1.704883 2.088003-1.053579 4.118537-2.222095 6.532192-3.543858 0.114936 0.938643 0.28734 1.647415 0.28734 2.337031 0 39.537959 0.019156 79.095074-0.038312 118.633033 0 1.781507 0.498056 2.356187 2.317875 2.356187 41.166218-0.038312 82.31328 0.038312 123.479498-0.09578 9.635462-0.038312 18.945272-2.279563 27.642091-6.49388 13.811467-6.704596 22.58491-17.872537 27.201503-32.316152 3.467234-10.861445 4.482501-22.086854 3.658794-33.446355-0.459744-6.436412-1.360075-12.834512-3.754574-18.887804-4.578281-11.551061-12.662108-20.094631-23.236213-26.435263-6.034136-3.620482-12.470548-6.340632-19.1943-8.294543-5.746796-1.666571-11.570217-2.91171-17.700133-2.892554-36.204817 0.134092-72.390478 0.076624-108.595296 0.057468-0.67046 0-1.340919-0.19156-2.011379-0.28734 0.076624-0.421432 0.038312-0.593836 0.114936-0.651304 0.804551-0.689616 1.609103-1.340919 2.413654-2.030535 13.658219-11.876713 23.849205-26.435263 32.220372-42.334733 2.892554-5.516925 5.306209-11.302033 7.873111-16.991361 0.67046-1.475011 1.494167-2.183783 3.218206-2.126315 4.214317 0.114936 8.428635 0.038312 12.642952 0.038312 2.298719 0 2.356187 0.09578 2.356187 2.451966 0 17.048829 0 34.097658-0.038312 51.146488 0 1.475011 0.363964 2.145471 1.973067 2.145471 9.041626-0.038312 18.102409-0.038312 27.144035 0 1.475011 0 1.915599-0.536368 1.915599-1.992223C741.641983 656.64562 741.641983 639.520166 741.641983 622.413869c0-2.317875 0.076624-2.413654 2.394498-2.413654 5.325365 0 10.669885 0.114936 15.99525-0.057468 2.088003-0.057468 2.969178 0.785396 3.658794 2.547746 1.992223 5.057181 3.984445 10.133518 6.244852 15.056607 6.11076 13.313412 14.137119 25.40084 24.059921 36.204817 8.907534 9.69293 18.90696 18.025785 30.572957 24.232325 2.375343 1.264295 2.52859 1.149359 2.52859-1.685727 0-9.865334-0.019156-19.711512 0.038312-29.576845C827.135157 665.399906 826.809505 664.557043 825.487742 664.020675zM674.691805 711.623305c28.810606 0 57.621212-0.019156 86.450973 0.019156 3.965289 0 7.355899 1.953911 10.746509 3.735418 6.340632 3.333142 11.646841 7.815643 14.826735 14.347835 1.302607 2.700994 2.509434 5.63186 2.873398 8.562727 1.379231 11.302033 0.249028 22.259258-5.670172 32.316152-4.118537 7.030248-10.152674 11.780933-17.891693 14.213743-2.145471 0.67046-4.463345 1.034423-6.704596 1.053579-13.753999 0.09578-27.507999 0.038312-41.261998 0.038312-14.252055 0-28.50411 0-42.756165 0-3.00749 0-2.988334 0-2.988334-2.91171 0-22.987186 0-45.974371 0-68.961557C672.297307 711.699929 672.354775 711.623305 674.691805 711.623305z" fill="#db639b" p-id="8196"></path><path d="M713.157029 780.16343c3.850354-1.838975 7.566615-3.926978 11.321189-5.976668 8.677663-4.750685 17.355325-9.520526 26.013832-14.309523 4.444189-2.451966 8.888378-4.865621 13.294256-7.413367 1.953911-1.130203 2.375343-3.160738 1.072735-4.942245-0.593836-0.823707-1.455855-1.551635-2.356187-2.068847-3.850354-2.241251-7.758175-4.386721-11.646841-6.570504-10.727353-6.034136-21.416394-12.12574-32.18206-18.102409-2.356187-1.302607-4.827309-2.566902-7.394211-3.275674-2.777618-0.76624-4.329253 0.804551-4.329253 3.67795l0.019156 54.862749C706.988801 779.646218 709.957979 781.695909 713.157029 780.16343z" fill="#db639b" p-id="8197"></path></svg>