<?xml version="1.0" standalone="no"?><!DOCTYPE svg PUBLIC "-//W3C//DTD SVG 1.1//EN" "http://www.w3.org/Graphics/SVG/1.1/DTD/svg11.dtd"><svg t="1703211095855" class="icon" viewBox="0 0 1024 1024" version="1.1" xmlns="http://www.w3.org/2000/svg" p-id="19262" xmlns:xlink="http://www.w3.org/1999/xlink" width="16" height="16"><path d="M903.67 279H657.2l137.73-137.77a25 25 0 0 0-35.36-35.35L586.48 279h-149L264.43 105.88a25 25 0 0 0-35.36 35.35L366.8 279H120.33c-30.62 0-55.52 24.54-55.52 54.7v540.64c0 30.16 24.9 54.71 55.52 54.71h783.34c30.62 0 55.52-24.55 55.52-54.71V333.67c0-30.16-24.9-54.67-55.52-54.67z m5.52 595.37c0 2.59-2.47 4.71-5.52 4.71H120.33c-3 0-5.52-2.12-5.52-4.71v-540.7c0-2.59 2.47-4.7 5.52-4.7h783.34c3.05 0 5.52 2.11 5.52 4.7z" p-id="19263" fill="#3089f3"></path><path d="M707.24 582.1l-276-159.36a25 25 0 0 0-37.5 21.65v318.73a25 25 0 0 0 37.5 21.65l276-159.36a25 25 0 0 0 0-43.31zM443.71 719.82V487.69l201 116.06z" p-id="19264" fill="#3089f3"></path></svg>