<?xml version="1.0" standalone="no"?><!DOCTYPE svg PUBLIC "-//W3C//DTD SVG 1.1//EN" "http://www.w3.org/Graphics/SVG/1.1/DTD/svg11.dtd"><svg t="1703494291039" class="icon" viewBox="0 0 1024 1024" version="1.1" xmlns="http://www.w3.org/2000/svg" p-id="3350" width="32" height="32" data-spm-anchor-id="a313x.search_index.0.i3.42ff3a81qODlTt" xmlns:xlink="http://www.w3.org/1999/xlink"><path d="M417.185031 568.889057a37.925912 37.925912 0 0 1 37.925912 37.925912v341.333207a37.925912 37.925912 0 0 1-37.925912 37.925912H75.851824a37.925912 37.925912 0 0 1-37.925912-37.925912V606.814969a37.925912 37.925912 0 0 1 37.925912-37.925912h341.333207m0-37.925911H75.851824a75.851824 75.851824 0 0 0-75.851824 75.851823v341.333207a75.851824 75.851824 0 0 0 75.851824 75.851824h341.333207a75.851824 75.851824 0 0 0 75.851823-75.851824V606.814969a75.851824 75.851824 0 0 0-75.851823-75.851823zM948.147797 568.889057a37.925912 37.925912 0 0 1 37.925912 37.925912v341.333207a37.925912 37.925912 0 0 1-37.925912 37.925912H606.81459a37.925912 37.925912 0 0 1-37.925912-37.925912V606.814969a37.925912 37.925912 0 0 1 37.925912-37.925912h341.333207m0-37.925911H606.81459a75.851824 75.851824 0 0 0-75.851824 75.851823v341.333207a75.851824 75.851824 0 0 0 75.851824 75.851824h341.333207a75.851824 75.851824 0 0 0 75.851824-75.851824V606.814969a75.851824 75.851824 0 0 0-75.851824-75.851823zM417.185031 37.926291a37.925912 37.925912 0 0 1 37.925912 37.925912v341.333207a37.925912 37.925912 0 0 1-37.925912 37.925912H75.851824a37.925912 37.925912 0 0 1-37.925912-37.925912V75.852203a37.925912 37.925912 0 0 1 37.925912-37.925912h341.333207m0-37.925912H75.851824a75.851824 75.851824 0 0 0-75.851824 75.851824v341.333207a75.851824 75.851824 0 0 0 75.851824 75.851824h341.333207a75.851824 75.851824 0 0 0 75.851823-75.851824V75.852203a75.851824 75.851824 0 0 0-75.851823-75.851824z" fill="#1296db" p-id="3351" data-spm-anchor-id="a313x.search_index.0.i6.42ff3a81qODlTt" class="selected"></path><path d="M777.481194 37.926291a20.859252 20.859252 0 0 1 14.791105 6.068146l187.354005 187.543634a21.048881 21.048881 0 0 1 0 29.771841l-187.354005 187.543634a20.859252 20.859252 0 0 1-29.582211 0l-187.354005-187.543634a21.048881 21.048881 0 0 1 0-29.771841l186.974746-187.354004A20.859252 20.859252 0 0 1 777.481194 37.926291m0-37.925912a58.595534 58.595534 0 0 0-41.718504 17.25629l-187.733263 187.733264a58.974793 58.974793 0 0 0 0 83.247377l187.354004 187.543634a58.785163 58.785163 0 0 0 83.247377 0l187.354005-187.543634a58.974793 58.974793 0 0 0 0-83.247377L818.820437 17.446299A58.595534 58.595534 0 0 0 777.481194 0.000379z" fill="#f4ea2a" p-id="3352" data-spm-anchor-id="a313x.search_index.0.i5.42ff3a81qODlTt" class=""></path></svg>