<?xml version="1.0" standalone="no"?><!DOCTYPE svg PUBLIC "-//W3C//DTD SVG 1.1//EN" "http://www.w3.org/Graphics/SVG/1.1/DTD/svg11.dtd"><svg t="1703500042748" class="icon" viewBox="0 0 1024 1024" version="1.1" xmlns="http://www.w3.org/2000/svg" p-id="6970" xmlns:xlink="http://www.w3.org/1999/xlink" width="32" height="32"><path d="M727.961 738h-480.6c-65.7 1-119.7-51.5-120.7-117.2V249.4c0.9-65.7 54.8-118.2 120.5-117.4h480.8c65.7-1 119.7 51.5 120.7 117.2v371.5c-0.9 65.7-54.9 118.2-120.6 117.3h-0.1z" fill="#BBDFFF" p-id="6971"></path><path d="M807.661 233.4c-72.2 45.1-137 101.2-192 166.1l-74.8-58.5-33 26.6 129.2 131.4c42.9-93.2 103.5-177.2 178.4-247.3l-8-18.3h0.2z" fill="#FFFFFF" p-id="6972"></path><path d="M243.961 219.6h266.1c13 0 23.5 10.5 23.5 23.5s-10.5 23.5-23.5 23.5h-266.1c-13 0-23.5-10.5-23.5-23.5 0.1-13 10.6-23.5 23.5-23.5zM243.961 376.1h203.5c13 0 23.5 10.5 23.5 23.5s-10.5 23.5-23.5 23.5h-203.5c-13 0-23.5-10.5-23.5-23.5 0.1-12.9 10.6-23.5 23.5-23.5z" fill="#E9F5FF" p-id="6973"></path><path d="M955.461 581.5c-20-40.1-70.1-40.1-100.2-30.1l-90.2 20c-0.5 31.4-15.2 60.9-40.1 80.1-60.1 50.1-170.3 60.1-250.4 60.1h-90.2c-20 0-30.1-20-20-30.1 0-20 20-30.1 30.1-20 60.1 10 230.4 10 290.5-40.1 20-30.1 30.1-40.1 30.1-60.1-18.9-18.2-43.9-28.9-70.1-30.1h-560.9c-10.7 0.7-19.3 9.3-20 20v210.4c0.7 10.7 9.3 19.3 20 20 150.3 50.1 340.6 110.2 450.8 110.2h40.1c70.1-10 310.5-170.3 360.6-210.4 22.7-27.8 30.2-65.3 19.9-99.9z" fill="#72AEFD" p-id="6974"></path></svg>