<?xml version="1.0" standalone="no"?><!DOCTYPE svg PUBLIC "-//W3C//DTD SVG 1.1//EN" "http://www.w3.org/Graphics/SVG/1.1/DTD/svg11.dtd"><svg t="1703210057640" class="icon" viewBox="0 0 1024 1024" version="1.1" xmlns="http://www.w3.org/2000/svg" p-id="10267" data-spm-anchor-id="a313x.search_index.0.i27.2b423a810PvI3R" xmlns:xlink="http://www.w3.org/1999/xlink" width="16" height="16"><path d="M880.5376 209.92H143.4624C115.2 209.92 92.16 232.96 92.16 261.2224V834.4576C92.16 862.72 115.2 885.76 143.4624 885.76h737.0752c28.3136 0 51.3024-23.04 51.3024-51.3024V261.2224C931.84 232.96 908.8 209.92 880.5376 209.92zM890.88 834.4576c0 5.6832-4.6592 10.3424-10.3424 10.3424H143.4624c-5.6832 0-10.3424-4.6592-10.3424-10.3424V419.84h757.76v414.6176zM133.12 378.88V261.2224c0-5.6832 4.6592-10.3424 10.3424-10.3424h737.0752c5.6832 0 10.3424 4.6592 10.3424 10.3424V378.88H133.12z" fill="#fdce6e" p-id="10268"></path><path d="M645.0176 498.4832l-187.136 187.136-78.8992-78.8992c-10.4448-10.4448-27.5456-10.4448-38.0416 0-10.4448 10.4448-10.4448 27.5456 0 38.0416l95.0272 95.0272c5.9392 5.9392 14.08 8.3968 21.9136 7.5776 7.8336 0.8192 15.9232-1.5872 21.9136-7.5776l203.264-203.264c10.4448-10.4448 10.4448-27.5456 0-38.0416-10.4448-10.4448-27.5968-10.4448-38.0416 0zM506.88 307.2c12.7488 0 23.04-10.2912 23.04-23.04v-102.4c0-12.7488-10.2912-23.04-23.04-23.04s-23.04 10.2912-23.04 23.04v102.4c0 12.7488 10.2912 23.04 23.04 23.04zM714.24 158.72c-12.7488 0-23.04 10.2912-23.04 23.04v102.4c0 12.7488 10.2912 23.04 23.04 23.04s23.04-10.2912 23.04-23.04v-102.4c0-12.7488-10.2912-23.04-23.04-23.04zM299.52 158.72c-12.7488 0-23.04 10.2912-23.04 23.04v102.4c0 12.7488 10.2912 23.04 23.04 23.04s23.04-10.2912 23.04-23.04v-102.4c0-12.7488-10.2912-23.04-23.04-23.04z" fill="#ea986c" p-id="10269" data-spm-anchor-id="a313x.search_index.0.i26.2b423a810PvI3R" class="selected"></path></svg>