<?xml version="1.0" standalone="no"?><!DOCTYPE svg PUBLIC "-//W3C//DTD SVG 1.1//EN" "http://www.w3.org/Graphics/SVG/1.1/DTD/svg11.dtd"><svg t="1710220623682" class="icon" viewBox="0 0 1024 1024" version="1.1" xmlns="http://www.w3.org/2000/svg" p-id="5075" xmlns:xlink="http://www.w3.org/1999/xlink" width="64" height="64"><path d="M317.5 517.6c-15.1 0-27.5-12.3-27.5-27.5 0-15.1 12.3-27.5 27.5-27.5H524c15.1 0 27.5 12.3 27.5 27.5 0 15.1-12.3 27.5-27.5 27.5H317.5zM317.5 644.6c-15.1 0-27.5-12.3-27.5-27.5 0-15.1 12.3-27.5 27.5-27.5H442c15.1 0 27.5 12.3 27.5 27.5 0 15.1-12.3 27.5-27.5 27.5H317.5zM317.5 780.3c-15.1 0-27.5-12.3-27.5-27.5 0-15.1 12.3-27.5 27.5-27.5H442c15.1 0 27.5 12.3 27.5 27.5 0 15.1-12.3 27.5-27.5 27.5H317.5z" fill="#f4ea2a" p-id="5076"></path><path d="M824.6 424.3l-115.3-42.5c-23.1-8.5-44.1 1.2-49.1 14.9L551.4 692l23.2 164.1c5.2 21.5 20.5 27.2 38.4 14.2l130.6-107.5 108.7-295.3c5.1-13.7-4.6-34.7-27.7-43.2zM608 824.8l-20.1-113.1 115.3 42.5-95.2 70.6z m109.3-109.1L602 673.3l60.9-165.4 115.3 42.5-60.9 165.3z m75-203.8L677 469.4l11-30c7.1-19.2 7.1-19.2 26.3-12.1l76.9 28.3c19.2 7.1 19.2 7.1 12.1 26.3l-11 30z m0 0" fill="#f4ea2a" p-id="5077"></path><path d="M801.9 328.7V128.1c-120.1 19.4-186 70.8-256.3 162.7 2.7 4.5 7.5 12.4 15.9 26.6 2.5 4.2 3.8 9 3.8 13.9 0 13.5-10.1 25.1-23.5 27-1.3 0.2-2.5 0.3-3.7 0.3-9.6 0-18.5-5.1-23.4-13.3-0.8-1.4-1.7-2.9-2.5-4.3-11.1 19.7-23.6 45.1-29.3 56.8-4.5 9.3-14.1 15.3-24.5 15.3h-1.9c-9-0.6-17.1-5.7-21.6-13.5s-4.9-17.3-1-25.5c12-25.1 29.1-59.3 42.3-79.8 0.1-0.2 0.3-0.5 0.4-0.6 0 0 1.4-2.1 2-3.1-69.8-91.1-135.2-142.4-253.8-162.1-0.6-0.1-1.2-0.2-1.7-0.3v768h578.8v-55.1c0-15.2 12.3-27.4 27.5-27.4s27.4 12.3 27.4 27.4v65c0 24.8-20.1 45-45 45H213.2c-24.9 0-45-20.2-45-45V121.2c0-6.2 1.4-12.5 4.1-18.2 7-14.7 20-25.4 35.6-29.4 3.4-0.9 6.8-1.3 10.4-1.3 2 0 4.1 0.2 6.1 0.4l2.6 0.4c2.3 0.3 4.5 0.7 6.8 1 127.4 21.3 201.1 75.2 278.5 170.3 77.4-95.1 151-149 278.3-170.2 2.8-0.5 5.5-0.9 8.1-1.3l1.2-0.2c2-0.3 4.2-0.5 6.2-0.5 3.4 0 6.8 0.4 10.2 1.2 18.1 4.5 32.9 18.4 38.6 36.4 1.3 4.2 2 8.4 2 12.8v205.8c0 7.1-2.5 14-7.3 19.2-5.3 5.7-12.5 8.8-20.1 8.8-0.6 0-1.2 0-1.8-0.1-14.6-0.7-25.8-12.9-25.8-27.6z" fill="#f4ea2a" p-id="5078"></path></svg>