<?xml version="1.0" standalone="no"?><!DOCTYPE svg PUBLIC "-//W3C//DTD SVG 1.1//EN" "http://www.w3.org/Graphics/SVG/1.1/DTD/svg11.dtd"><svg t="1703209825166" class="icon" viewBox="0 0 1024 1024" version="1.1" xmlns="http://www.w3.org/2000/svg" p-id="7454" xmlns:xlink="http://www.w3.org/1999/xlink" width="16" height="16"><path d="M864.8 63.9c52.2 0 94.5 38.5 94.5 86.1v716.4c0 47.5-42.3 86.1-94.5 86.1H153.6c-52.2 0-94.5-38.5-94.5-86.1V150c0-47.5 42.3-86.1 94.5-86.1h711.2zM749.8 721H269.7c-16 0-28.9 15.5-28.9 34.4 0 19 12.9 34.5 28.9 34.5h480.1c16 0 28.9-15.5 28.9-34.5-0.1-19.1-13-34.4-28.9-34.4z m0-118H269.7c-16 0-28.9 15.7-28.9 35.1s12.9 35.1 28.9 35.1h480.1c16 0 28.9-15.7 28.9-35.1-0.1-19.4-13-35.1-28.9-35.1zM434 446.5l33.1 78.5c4.2 9.9 27.6 14.8 38.4 11 10.8-3.8 16.2-14.8 12.1-24.7l-115.9-275c-3.7-8.7-13.7-13.6-23.4-12-8.7-0.3-17.1 4.4-20.4 12.3L242 511.6c-4.2 9.9 1.3 20.9 12.1 24.7 10.8 3.8 31.5-1.1 35.6-11l33.2-78.8H434zM749.8 457h-166c-16 0-28.9 15.5-28.9 34.4s12.9 34.4 28.9 34.4h166c16 0 28.9-15.5 28.9-34.4-0.1-18.9-13-34.4-28.9-34.4z m-79.5-225.7c-13.9 0-25.1 9.4-25.1 21v53.6H580c-13.7 0-24.9 9.2-25.1 20.7v0.4c0 11.6 11.2 21 25.1 21h65.1v46c0 11.5 11 20.9 24.7 21l0.4-2c13.9 0 25.1-7.4 25.1-19v-46h52.5c13.7 0 24.9-9.2 25.1-20.7v-0.3c0-11.6-11.2-21-25.1-21h-52.5v-53.6c0-11.5-11-20.9-24.7-21l-0.3-0.1z m-290.5 77l35.1 85.8h-61.7l26.6-85.8z" fill="#e94e5e" p-id="7455"></path></svg>