<?xml version="1.0" standalone="no"?><!DOCTYPE svg PUBLIC "-//W3C//DTD SVG 1.1//EN" "http://www.w3.org/Graphics/SVG/1.1/DTD/svg11.dtd"><svg t="1703151638023" class="icon" viewBox="0 0 1024 1024" version="1.1" xmlns="http://www.w3.org/2000/svg" p-id="33051" xmlns:xlink="http://www.w3.org/1999/xlink" width="16" height="16"><path d="M747.507 702.058c-24.81-64.657-60.415-131.347-119.702-161.154 29.167-49.775 67.53-85.39 136.491-85.39 129.245 0 179.103 145.934 179.103 247.945l-195.892-1.4z m16.79-511.064v0.001c71.38 0 129.245 57.893 129.245 129.307 0 71.415-57.864 129.308-129.245 129.308-28.354 0-54.57-9.142-75.878-24.631 13.477-25.242 21.126-54.066 21.126-84.681 0-41.564-14.088-79.833-37.737-110.3 23.47-24.06 56.233-39.004 92.49-39.004z m-487.17 510.108l-195.892 1.4c0-102.01 49.86-247.943 179.103-247.943 68.96 0 107.325 35.614 136.49 85.388-59.286 29.807-94.891 96.498-119.701 161.155z m-16.79-511.064c36.256 0 69.02 14.944 92.49 39.004-23.65 30.468-37.738 68.736-37.738 110.3 0 30.615 7.65 59.44 21.126 84.681-21.308 15.49-47.524 24.631-75.878 24.631-71.38 0-129.245-57.893-129.245-129.307 0-71.416 57.864-129.309 129.245-129.309z m15.13 659.543c0-137.966 61.786-322.576 236.242-322.576 174.457 0 241.758 188.033 241.758 326l-478-3.424z m62-504.576c0-96.098 77.903-174 174-174 96.098 0 174 77.902 174 174 0 96.097-77.902 174-174 174-96.097 0-174-77.903-174-174z" p-id="33052" fill="#e64959"></path></svg>