<?xml version="1.0" standalone="no"?><!DOCTYPE svg PUBLIC "-//W3C//DTD SVG 1.1//EN" "http://www.w3.org/Graphics/SVG/1.1/DTD/svg11.dtd"><svg t="1703499986859" class="icon" viewBox="0 0 1024 1024" version="1.1" xmlns="http://www.w3.org/2000/svg" p-id="6774" xmlns:xlink="http://www.w3.org/1999/xlink" width="32" height="32"><path d="M758 112H266c-70.69 0-128 57.31-128 128v544c0 70.69 57.31 128 128 128h492c70.69 0 128-57.31 128-128V240c0-70.69-57.31-128-128-128zM289.27 457.12l114.36-264.79c5.11-11.83 18.84-17.28 30.67-12.17 5.25 2.27 9.24 6.24 11.61 10.98 0.3 0.55 0.58 1.11 0.84 1.69L563.9 456.41c5.23 11.77-0.07 25.56-11.84 30.8-11.77 5.23-25.56-0.07-30.8-11.84l-32.07-72.16h-125.8l-31.28 72.43c-5.11 11.83-18.84 17.28-30.67 12.17-11.83-5.13-17.27-18.86-12.17-30.69z m31.31 119.05h382.84c17.99 0 32.58 14.33 32.58 32s-14.59 32-32.58 32H320.58c-17.99 0-32.58-14.33-32.58-32s14.59-32 32.58-32z m287.47-118.73c0-17.67 14.33-32 32-32h64c17.67 0 32 14.33 32 32s-14.33 32-32 32h-64c-17.67 0-32-14.32-32-32z m95.5 333.45H320.71c-17.99 0-32.58-14.33-32.58-32s14.59-32 32.58-32h382.84c17.99 0 32.58 14.33 32.58 32 0.01 17.67-14.59 32-32.58 32z m54.68-478.71c0 12.54-10.17 22.71-22.71 22.71h-39.75v39.75c0 12.54-10.17 22.71-22.71 22.71-12.54 0-22.71-10.17-22.71-22.71v-39.75H610.6c-12.54 0-22.71-10.17-22.71-22.71 0-12.54 10.17-22.71 22.71-22.71h39.75v-39.75c0-12.54 10.17-22.71 22.71-22.71 12.54 0 22.71 10.17 22.71 22.71v39.75h39.75c12.54-0.01 22.71 10.16 22.71 22.71z" p-id="6775" fill="#d4237a"></path><path d="M383.55 356.54h84.9l-43.06-96.89z" p-id="6776" fill="#d4237a"></path></svg>