<?xml version="1.0" standalone="no"?><!DOCTYPE svg PUBLIC "-//W3C//DTD SVG 1.1//EN" "http://www.w3.org/Graphics/SVG/1.1/DTD/svg11.dtd"><svg t="1703151745619" class="icon" viewBox="0 0 1024 1024" version="1.1" xmlns="http://www.w3.org/2000/svg" p-id="34791" xmlns:xlink="http://www.w3.org/1999/xlink" width="16" height="16"><path d="M750.06 467.713h137.806v51.201H750.06v-51.2zM183.654 64.34v80.557l35.164-10.868V99.504H922.63V548.22H362.564l-1.839 35.162h597.122V64.34z m55.969 296.923c57.567 0 104.24-46.673 104.24-104.267 0-57.541-46.672-104.213-104.24-104.213s-104.24 46.672-104.24 104.213c0 57.594 46.673 104.267 104.24 104.267z m88.496 484.41V618.864h6.634l9.669-188.393 179.763-93.13-15.105-29.144 4.396 7.672 192.602-110.287-8.684-15.291L505.03 300.417l-4.475-8.684-164.338 85.194h-58.661l-39.745 46.085-38.467-46.085-84.448 15.663-5.407 187.382h35.83l1.945 38.892h5.408v226.809h-7.167l-41.824 9.057v38.52h35.617l41.558-6.767 0.373 6.767h46.06v-233.2h26.212v233.2h46.06l0.373-6.767 41.557 6.767h35.617v-38.52l-41.85-9.057z" p-id="34792" fill="#17abe3"></path></svg>