<?xml version="1.0" standalone="no"?><!DOCTYPE svg PUBLIC "-//W3C//DTD SVG 1.1//EN" "http://www.w3.org/Graphics/SVG/1.1/DTD/svg11.dtd"><svg t="1703151008295" class="icon" viewBox="0 0 1024 1024" version="1.1" xmlns="http://www.w3.org/2000/svg" p-id="26298" xmlns:xlink="http://www.w3.org/1999/xlink" width="16" height="16"><path d="M440.888889 265.671111v28.444445h56.888889v28.444444h-56.888889v28.444444h56.888889v56.888889h28.444444v-56.888889h56.888889v-28.444444h-56.888889v-28.444444h56.888889v-28.444445h-50.915555l58.595555-58.595555-20.195555-20.195556L512 245.475556l-58.595556-58.595556-20.195555 20.195556 58.595555 58.595555H440.888889z" fill="#ea9518" p-id="26299"></path><path d="M830.293333 0H193.706667A193.706667 193.706667 0 0 0 0 193.706667v636.586666A193.706667 193.706667 0 0 0 193.706667 1024h636.586666A193.706667 193.706667 0 0 0 1024 830.293333V193.706667A193.706667 193.706667 0 0 0 830.293333 0zM512 123.448889a170.666667 170.666667 0 1 1-170.666667 170.666667 170.666667 170.666667 0 0 1 170.666667-170.666667zM848.213333 711.111111c-25.315556 17.066667-104.675556 68.835556-131.128889 85.333333s-104.391111 75.377778-136.248888 75.377778-227.555556-50.062222-264.533334-51.484444-88.746667 34.702222-104.391111 21.617778-73.955556-174.648889-60.017778-197.12 185.742222-95.288889 222.72-100.693334 187.733333 38.4 224.711111 43.804445 66.275556 21.048889 26.453334 60.871111-200.817778 1.422222-204.8 11.946666S471.04 739.555556 545.28 739.555556a332.8 332.8 0 0 0 161.28-39.822223c34.417778-17.066667 118.328889-61.44 149.617778-37.831111s17.066667 30.435556-7.964445 49.208889z" fill="#ea9518" p-id="26300"></path></svg>