<?xml version="1.0" standalone="no"?><!DOCTYPE svg PUBLIC "-//W3C//DTD SVG 1.1//EN" "http://www.w3.org/Graphics/SVG/1.1/DTD/svg11.dtd"><svg t="1703499874273" class="icon" viewBox="0 0 1025 1024" version="1.1" xmlns="http://www.w3.org/2000/svg" p-id="6059" xmlns:xlink="http://www.w3.org/1999/xlink" width="32.03125" height="32"><path d="M835.31 0H185.65C83.6 0 0 83.49 0 185.65v649.78c0 102.05 83.49 185.65 185.65 185.65H835.43c102.05 0 185.65-83.49 185.65-185.65V185.65C1020.97 83.6 937.48 0 835.31 0zM557.3 160.71c157.51 0 285.76 128.13 285.76 285.77 0 46.46-11.39 92.71-33.03 133.48-4.1 7.86-12.19 12.3-20.5 12.3-3.64 0-7.4-0.91-10.93-2.74-11.27-6.03-15.6-20.04-9.57-31.32 18.11-34.17 27.68-72.78 27.68-111.84 0-132-107.41-239.29-239.3-239.29-131.89 0-239.41 107.4-239.41 239.29 0 12.87-10.37 23.23-23.23 23.23-12.87 0-23.23-10.37-23.23-23.23 0.11-157.52 128.24-285.65 285.76-285.65z m111.05 325.51v46.35h-92.83v82.12h-46.35v-82.12h-92.83v-46.35h92.83v-45.33L426.2 337.93l32.8-32.8 93.29 93.4 93.28-93.4 32.8 32.8-102.96 102.96v45.33h92.94z m188.49 210.83c-31.66 42.59-224.83 163.44-343.06 163.44-50.34 0-144.08-42.59-144.08-42.59l-102.73-43.39v50.11H153.31V529.96h113.67v66.86h86.56l42.03 58.77h182.8s32.92 1.25 32.92 24.6c0 23.23-47.83 38.72-47.83 38.72h102.73s137.58-37.47 167.31-61.05c7.85-7.4 55-3.52 23.34 39.19z m0 0" p-id="6060" fill="#efb336"></path></svg>