<?xml version="1.0" standalone="no"?><!DOCTYPE svg PUBLIC "-//W3C//DTD SVG 1.1//EN" "http://www.w3.org/Graphics/SVG/1.1/DTD/svg11.dtd"><svg t="1716199774233" class="icon" viewBox="0 0 1024 1024" version="1.1" xmlns="http://www.w3.org/2000/svg" p-id="12853" xmlns:xlink="http://www.w3.org/1999/xlink" width="48" height="48"><path d="M998.4 512c0 268.6208-217.7792 486.4-486.4 486.4C243.370667 998.4 25.6 780.6208 25.6 512 25.6 243.370667 243.370667 25.6 512 25.6 780.6208 25.6 998.4 243.370667 998.4 512zM763.298133 762.8288l-135.432533-123.050667c37.162667-39.978667 60.1344-94.045867 60.1344-153.693867 0-122.615467-96.887467-222.370133-216.029867-222.370133C352.878933 263.714133 256 363.4688 256 486.084267c0 122.683733 96.8448 222.498133 215.970133 222.498133 49.723733 0 95.428267-17.570133 132.0448-46.737067l136.695467 124.270933c3.1232 3.165867 7.176533 4.846933 11.332267 4.846933 4.087467 0 8.1664-1.681067 11.264-4.8128C769.570133 779.6992 769.570133 769.220267 763.298133 762.8288zM471.970133 296.644267c101.461333 0 184.029867 85.0176 184.029867 189.44 0 51.072-19.746133 97.442133-51.746133 131.541333l0-6.8608c0-1.9712-1.501867-3.584-3.336533-3.584l-42.914133 0c-1.826133 0-3.336533-1.6128-3.336533-3.584L554.666667 385.8432c0-1.962667-1.501867-3.575467-3.336533-3.575467l-20.0448 0c-1.834667 0-3.336533 1.604267-3.336533 3.575467l0 217.762133c0 1.962667-1.501867 3.584-3.345067 3.584l-28.962133 0c-1.8432 0-3.3536-1.6128-3.3536-3.584L492.288 338.030933c0-1.9712-1.501867-3.584-3.336533-3.584l-20.027733 0c-1.8432 0-3.345067 1.604267-3.345067 3.584l0 265.565867c0 1.962667-1.5104 3.584-3.345067 3.584l-29.4656 0c-1.834667 0-3.336533-1.6128-3.336533-3.584L429.431467 427.7504c0-1.962667-1.501867-3.584-3.336533-3.584L406.101333 424.1664c-1.834667 0-3.345067 1.6128-3.345067 3.584l0 175.8464c0 1.962667-1.501867 3.584-3.336533 3.584L379.050667 607.1808c-1.834667 0-3.336533-1.6128-3.336533-3.584L375.714133 472.234667c0-1.962667-1.501867-3.584-3.345067-3.584l-20.027733 0c-1.834667 0-3.345067 1.6128-3.345067 3.584l0 131.370667c0 1.962667-1.501867 3.584-3.345067 3.584l-15.0784 0c-26.5728-32.853333-42.5984-75.076267-42.5984-121.096533C287.991467 381.661867 370.577067 296.644267 471.970133 296.644267zM347.118933 625.092267l249.7536 0c-32.8448 31.300267-76.731733 50.474667-124.9024 50.474667C423.8336 675.566933 379.946667 656.392533 347.118933 625.092267z" fill="#1296db" p-id="12854"></path></svg>