<?xml version="1.0" standalone="no"?><!DOCTYPE svg PUBLIC "-//W3C//DTD SVG 1.1//EN" "http://www.w3.org/Graphics/SVG/1.1/DTD/svg11.dtd"><svg t="1703209719754" class="icon" viewBox="0 0 1024 1024" version="1.1" xmlns="http://www.w3.org/2000/svg" p-id="6143" id="mx_n_1703209719754" xmlns:xlink="http://www.w3.org/1999/xlink" width="16" height="16"><path d="M848 1024H176a128 128 0 0 1-128-128V224a128 128 0 0 1 128-128h672a128 128 0 0 1 128 128V896a128 128 0 0 1-128 128zM176 160a64 64 0 0 0-64 64V896a64 64 0 0 0 64 64h672a64 64 0 0 0 64-64V224a64 64 0 0 0-64-64z" p-id="6144" fill="#17abe3"></path><path d="M704 256a32 32 0 0 1-32-32v-192a32 32 0 0 1 64 0v192a32 32 0 0 1-32 32zM320 256a32 32 0 0 1-32-32v-192a32 32 0 0 1 64 0v192A32 32 0 0 1 320 256zM944 448H80a32 32 0 0 1 0-64h864a32 32 0 0 1 0 64zM909.44 732.16H109.44a32 32 0 0 1-32-32 32 32 0 0 1 32-32h800a32 32 0 0 1 32 32 32.64 32.64 0 0 1-32 32z" p-id="6145" fill="#17abe3"></path><path d="M368 992a32 32 0 0 1-32-32V416a32 32 0 0 1 64 0V960a32 32 0 0 1-32 32zM656 992a32 32 0 0 1-32-32V416a32 32 0 0 1 64 0V960a32 32 0 0 1-32 32z" p-id="6146" fill="#17abe3"></path></svg>