<?xml version="1.0" standalone="no"?><!DOCTYPE svg PUBLIC "-//W3C//DTD SVG 1.1//EN" "http://www.w3.org/Graphics/SVG/1.1/DTD/svg11.dtd"><svg t="1703150789932" class="icon" viewBox="0 0 1204 1024" version="1.1" xmlns="http://www.w3.org/2000/svg" p-id="24899" xmlns:xlink="http://www.w3.org/1999/xlink" width="18.8125" height="16"><path d="M1101.522824 12.830118H103.183059C57.404235 12.830118 19.998118 50.236235 19.998118 96.075294v831.969882c0 45.778824 37.345882 83.245176 83.184941 83.245177h998.339765c45.778824 0 83.184941-37.406118 83.184941-83.245177V96.075294c0-45.778824-37.345882-83.245176-83.184941-83.245176z m1.927529 926.358588H94.810353V265.758118H1103.510588v673.430588h-0.12047z" fill="#3F92FE" p-id="24900"></path><path d="M730.834824 802.273882v88.666353H473.871059v-88.666353h256.963765z m315.51247 0v88.666353h-257.14447v-88.666353h257.204705z m-315.51247-162.635294v88.726588H473.871059v-88.786823h256.963765z m315.51247 0v88.726588h-257.14447v-88.786823h257.204705z m-315.51247-162.635294v88.726588H473.871059V477.063529h256.963765z m315.51247 0v88.726588h-257.14447V477.063529h257.204705z m-315.51247-162.514823v88.666353H473.871059V314.488471h256.963765z m315.51247 0v88.666353h-257.14447V314.488471h257.204705z" fill="#cae1ff" p-id="24901" data-spm-anchor-id="a313x.search_index.0.i16.42ff3a81H0qYEj" class="selected"></path><path d="M415.503059 802.273882v88.666353h-257.204706v-88.666353h257.204706z m0-487.785411v88.666353h-257.204706V314.488471h257.204706z" fill="#84BAFF" p-id="24902"></path><path d="M415.503059 477.063529v88.666353h-257.204706V477.063529zM415.503059 639.578353v88.786823h-257.204706v-88.786823z" fill="#cae1ff" p-id="24903" data-spm-anchor-id="a313x.search_index.0.i15.42ff3a81H0qYEj" class="selected"></path></svg>