<?xml version="1.0" standalone="no"?><!DOCTYPE svg PUBLIC "-//W3C//DTD SVG 1.1//EN" "http://www.w3.org/Graphics/SVG/1.1/DTD/svg11.dtd"><svg t="1703499632236" class="icon" viewBox="0 0 1024 1024" version="1.1" xmlns="http://www.w3.org/2000/svg" p-id="5904" xmlns:xlink="http://www.w3.org/1999/xlink" width="32" height="32"><path d="M42.666667 231.253333a85.333333 85.333333 0 0 1 85.333333-85.333333h768a85.333333 85.333333 0 0 1 85.333333 85.333333v646.826667a85.333333 85.333333 0 0 1-85.333333 85.333333H128a85.333333 85.333333 0 0 1-85.333333-85.333333V231.253333z" fill="#FCFCFC" p-id="5905"></path><path d="M896 167.253333H128a64 64 0 0 0-64 64v646.826667a64 64 0 0 0 64 64h768a64 64 0 0 0 64-64V231.253333a64 64 0 0 0-64-64z m-768-21.333333a85.333333 85.333333 0 0 0-85.333333 85.333333v646.826667a85.333333 85.333333 0 0 0 85.333333 85.333333h768a85.333333 85.333333 0 0 0 85.333333-85.333333V231.253333a85.333333 85.333333 0 0 0-85.333333-85.333333H128z" fill="#DFDFDF" p-id="5906"></path><path d="M42.666667 188.586667a42.666667 42.666667 0 0 1 42.666666-42.666667h853.333334a42.666667 42.666667 0 0 1 42.666666 42.666667v78.421333H42.666667V188.586667z" fill="#D88987" p-id="5907"></path><path d="M337.322667 186.581333c0 23.936-18.517333 43.392-41.386667 43.392-22.826667 0-41.344-19.456-41.344-43.392 0-23.978667 18.517333-43.392 41.386667-43.392 22.826667 0 41.344 19.413333 41.344 43.392zM764.672 186.581333c0 23.936-18.517333 43.392-41.386667 43.392-22.826667 0-41.344-19.456-41.344-43.392 0-23.978667 18.517333-43.392 41.386667-43.392 22.826667 0 41.344 19.413333 41.344 43.392z" fill="#707A8D" p-id="5908"></path><path d="M268.416 112.896a27.562667 27.562667 0 0 1 55.125333 0v75.008a27.562667 27.562667 0 0 1-55.125333 0V112.896zM695.722667 112.896a27.562667 27.562667 0 0 1 55.125333 0v75.008a27.562667 27.562667 0 0 1-55.125333 0V112.896z" fill="#999999" p-id="5909"></path><path d="M981.333333 727.082667H71.509333v-21.333334H981.333333v21.333334zM966.229333 478.976H56.448v-21.333333h909.781333v21.333333z" fill="#DFDFDF" p-id="5910"></path><path d="M290.773333 267.008v696.448h-21.333333V267.008h21.333333zM518.272 267.008v696.448h-21.333333V267.008h21.333333zM745.685333 267.008v696.448h-21.333333V267.008h21.333333z" fill="#DFDFDF" p-id="5911"></path></svg>