<?xml version="1.0" standalone="no"?><!DOCTYPE svg PUBLIC "-//W3C//DTD SVG 1.1//EN" "http://www.w3.org/Graphics/SVG/1.1/DTD/svg11.dtd"><svg t="1703500140677" class="icon" viewBox="0 0 1031 1024" version="1.1" xmlns="http://www.w3.org/2000/svg" p-id="7659" xmlns:xlink="http://www.w3.org/1999/xlink" width="32.21875" height="32"><path d="M441.6 953.6H147.2c-38.4 0-70.4-32-70.4-70.4V147.2c0-38.4 32-70.4 70.4-70.4h659.2c38.4 0 70.4 32 70.4 70.4v249.6c25.6 12.8 51.2 25.6 70.4 44.8V147.2c0-83.2-64-147.2-147.2-147.2H147.2C70.4 0 0 64 0 147.2v729.6c0 83.2 64 147.2 147.2 147.2H518.4c-32-19.2-57.6-44.8-76.8-70.4z" p-id="7660" fill="#a4579d"></path><path d="M460.8 179.2c-12.8-12.8-38.4-12.8-57.6 0l-128 128-51.2-44.8c-12.8-19.2-38.4-19.2-51.2-6.4-12.8 12.8-12.8 38.4 0 51.2L243.2 384l6.4 6.4c6.4 6.4 19.2 12.8 32 12.8s19.2-6.4 25.6-12.8l153.6-153.6c19.2-12.8 19.2-38.4 0-57.6z m128 70.4c-19.2 0-38.4 19.2-38.4 38.4s19.2 38.4 38.4 38.4h236.8c19.2 0 38.4-19.2 38.4-38.4s-19.2-38.4-38.4-38.4H588.8zM409.6 454.4l-128 128-57.6-44.8c-12.8-12.8-38.4-12.8-51.2 0-12.8 12.8-12.8 38.4 0 51.2l70.4 70.4 6.4 6.4c6.4 6.4 19.2 12.8 32 12.8s19.2-6.4 25.6-12.8L460.8 512c12.8-19.2 12.8-38.4-6.4-57.6-12.8-12.8-32-12.8-44.8 0zM934.4 620.8l-172.8-38.4V467.2v-6.4c0-44.8-38.4-76.8-83.2-76.8-44.8 0-76.8 38.4-76.8 83.2v204.8c-32-32-83.2-32-115.2 0s-32 76.8 0 108.8l179.2 179.2c19.2 19.2 44.8 32 76.8 32h211.2c44.8 0 76.8-38.4 76.8-76.8v-166.4c6.4-57.6-38.4-115.2-96-128z" p-id="7661" fill="#a4579d"></path></svg>