<?xml version="1.0" standalone="no"?><!DOCTYPE svg PUBLIC "-//W3C//DTD SVG 1.1//EN" "http://www.w3.org/Graphics/SVG/1.1/DTD/svg11.dtd"><svg t="1703500171458" class="icon" viewBox="0 0 1024 1024" version="1.1" xmlns="http://www.w3.org/2000/svg" p-id="7855" xmlns:xlink="http://www.w3.org/1999/xlink" width="32" height="32"><path d="M512 970.666667c-223.573333 0-405.333333-181.76-405.333333-405.333334s181.76-405.333333 405.333333-405.333333 405.333333 181.76 405.333333 405.333333c0 17.493333-14.506667 32-32 32s-32-14.506667-32-32c0-188.16-153.173333-341.333333-341.333333-341.333333s-341.333333 153.173333-341.333333 341.333333 153.173333 341.333333 341.333333 341.333334c17.493333 0 32 14.506667 32 32s-14.506667 32-32 32z" fill="#e16531" p-id="7856"></path><path d="M512 586.666667c-17.493333 0-32-14.506667-32-32V341.333333c0-17.493333 14.506667-32 32-32s32 14.506667 32 32v213.333334c0 17.493333-14.506667 32-32 32zM640 117.333333H384c-17.493333 0-32-14.506667-32-32s14.506667-32 32-32h256c17.493333 0 32 14.506667 32 32s-14.506667 32-32 32z" fill="#e16531" p-id="7857"></path><path d="M619.605333 935.125333a21.333333 21.333333 0 0 0 17.834667 33.024h203.434667a21.333333 21.333333 0 0 0 17.834666-33.024l-101.717333-155.093333a21.333333 21.333333 0 0 0-35.669333 0l-101.717334 155.093333z m119.552-104.490666l-62.208 94.848h124.416l-62.208-94.848z" fill="#e16531" p-id="7858"></path><path d="M858.752 664.789333a21.333333 21.333333 0 0 0-17.834667-33.024H637.44a21.333333 21.333333 0 0 0-17.834667 33.024l101.717334 155.093334a21.333333 21.333333 0 0 0 35.669333 0l101.717333-155.093334z" fill="#e16531" p-id="7859"></path><path d="M534.528 532.864a32.213333 32.213333 0 0 0-45.226667 0l-150.869333 150.826667c-12.373333 12.373333-12.373333 32.896 0 45.226666 12.373333 12.373333 32.853333 12.373333 45.226667 0l150.869333-150.826666c12.373333-12.373333 12.373333-32.853333 0-45.226667z" fill="#e16531" p-id="7860"></path></svg>