<?xml version="1.0" standalone="no"?><!DOCTYPE svg PUBLIC "-//W3C//DTD SVG 1.1//EN" "http://www.w3.org/Graphics/SVG/1.1/DTD/svg11.dtd"><svg t="1715832583118" class="icon" viewBox="0 0 1024 1024" version="1.1" xmlns="http://www.w3.org/2000/svg" p-id="16179" width="48" height="48" xmlns:xlink="http://www.w3.org/1999/xlink"><path d="M977.39454 449.412246A457.808505 457.808505 0 0 0 511.969997 0.066006 457.808505 457.808505 0 0 0 46.545455 449.412246a446.807561 446.807561 0 0 0 176.015099 352.0302c179.400006 160.783024 513.65945 222.557554 513.65945 222.557554l-42.311322-160.783024A449.34624 449.34624 0 0 0 977.39454 449.412246z" fill="#00C88C" p-id="16180"></path><path d="M671.906795 638.120743l-38.08019-25.386794a246.251895 246.251895 0 0 1-112.548117 22.848114A217.480195 217.480195 0 0 1 300.413387 423.179226a102.393399 102.393399 0 0 1 0-16.078302 221.711328 221.711328 0 0 1 441.730203-38.926416 298.717934 298.717934 0 0 1 0 38.926416 235.250951 235.250951 0 0 1-43.157549 147.243401l38.08019 33.002831a50.773586 50.773586 0 0 1 22.001887 37.233964c0 20.309435-17.770755 32.156605-44.850001 35.54151a55.004719 55.004719 0 0 1-42.311322-22.001887zM596.592642 462.951869l29.617925 24.540567a181.092459 181.092459 0 0 0 17.770755-84.622644C638.903964 311.477336 598.285094 262.396203 521.278488 253.933938s-115.933022 54.158492-120.164154 148.089627a123.54906 123.54906 0 0 0 120.164154 147.243401 175.168873 175.168873 0 0 0 42.311322-5.077358l-22.848114-22.001888a41.465096 41.465096 0 0 1-11.84717-25.386793 43.157549 43.157549 0 0 1 42.311322-47.388681 36.387737 36.387737 0 0 1 25.386794 13.539623z" fill="#FFFFFF" p-id="16181"></path></svg>